<svg xmlns="http://www.w3.org/2000/svg" xmlns:xlink="http://www.w3.org/1999/xlink" width="800" zoomAndPan="magnify" viewBox="0 0 600 449.999984" height="600" preserveAspectRatio="xMidYMid meet" version="1.0"><defs><clipPath id="id1"><path d="M 159.078125 170.699219 L 319.183594 170.699219 L 319.183594 421.148438 L 159.078125 421.148438 Z M 159.078125 170.699219 " clip-rule="nonzero"/></clipPath><clipPath id="id2"><path d="M 218 28.898438 L 366 28.898438 L 366 291 L 218 291 Z M 218 28.898438 " clip-rule="nonzero"/></clipPath><clipPath id="id3"><path d="M 414.324219 97.496094 L 441.03125 97.496094 L 441.03125 103.847656 L 414.324219 103.847656 Z M 414.324219 97.496094 " clip-rule="nonzero"/></clipPath></defs><g clip-path="url(#id1)"><path fill="#ffffff" d="M 277.621094 372.851562 L 259.480469 414.175781 L 166.054688 373.1875 L 184.195312 331.867188 Z M 317.320312 301.226562 C 316.9375 301.058594 316.527344 300.972656 316.109375 300.972656 C 315.265625 300.972656 314.457031 301.328125 313.886719 301.953125 C 313.667969 302.191406 313.484375 302.472656 313.351562 302.777344 C 310.179688 310.003906 304.316406 320.480469 300.375 324.792969 C 295.359375 330.277344 290.683594 332.074219 286.921875 333.519531 C 285.675781 334.003906 284.496094 334.457031 283.445312 335.003906 C 281.472656 336.003906 279.71875 337.34375 278.210938 338.992188 C 276.019531 341.390625 274.988281 343.777344 274.726562 344.449219 L 274.703125 344.503906 L 267.160156 361.691406 L 194.628906 329.871094 L 195.488281 327.6875 C 196.1875 325.894531 196.585938 323.933594 196.667969 321.847656 L 196.671875 321.761719 L 196.683594 321.675781 C 197.113281 319.011719 196.5625 316.042969 195.976562 312.902344 L 195.890625 312.441406 C 194.742188 306.246094 192.851562 300.105469 190.851562 293.605469 C 189.324219 288.644531 187.746094 283.515625 186.398438 278.050781 C 179.140625 249.410156 177.085938 229.265625 180.296875 218.179688 C 182.886719 209.238281 182.558594 200.6875 182.296875 193.820312 L 182.292969 193.792969 C 182.054688 187.472656 181.863281 182.480469 183.832031 179.804688 C 185.304688 177.800781 187.085938 176.867188 189.441406 176.867188 L 189.558594 176.867188 C 194.398438 176.929688 200.597656 181.03125 204.632812 186.839844 C 211.773438 197.117188 213.484375 207.324219 210.351562 220.96875 C 210.1875 221.675781 210.289062 222.421875 210.632812 223.066406 C 212.078125 225.773438 215.832031 234.148438 215.863281 240.308594 C 215.863281 240.8125 215.988281 241.292969 216.226562 241.730469 L 216.320312 241.902344 L 216.363281 242.09375 C 216.554688 242.898438 217.050781 243.570312 217.757812 243.980469 C 218.238281 244.261719 229.414062 250.898438 237.882812 262.398438 C 249.0625 277.585938 250.472656 293.835938 242.078125 310.699219 C 241.726562 311.40625 241.667969 312.207031 241.921875 312.957031 C 242.171875 313.707031 242.699219 314.3125 243.40625 314.660156 C 243.714844 314.816406 244.042969 314.914062 244.382812 314.953125 C 244.496094 314.964844 244.609375 314.972656 244.722656 314.972656 C 245.851562 314.972656 246.871094 314.34375 247.371094 313.332031 C 256.75 294.5 255.054688 275.59375 242.46875 258.660156 C 235.097656 248.738281 226.035156 242.277344 222.484375 239.960938 L 221.875 239.566406 L 221.828125 238.84375 C 221.375 232.089844 218.175781 224.792969 216.816406 221.96875 L 216.464844 221.230469 L 216.628906 220.425781 C 219.492188 206.21875 217.253906 194.453125 209.578125 183.40625 C 205.285156 177.230469 197.457031 170.949219 189.640625 170.847656 C 189.578125 170.847656 189.515625 170.847656 189.453125 170.847656 C 185.253906 170.847656 181.53125 172.761719 178.976562 176.242188 C 175.765625 180.617188 176.003906 186.847656 176.28125 194.058594 C 176.539062 200.835938 176.832031 208.507812 174.515625 216.503906 C 168.96875 235.636719 178.199219 271.347656 181.160156 281.835938 L 181.289062 282.296875 C 182.539062 287.296875 183.90625 291.648438 185.230469 295.855469 L 185.246094 295.90625 C 187.066406 301.683594 188.785156 307.144531 189.96875 313.539062 C 190.5 316.390625 190.515625 322.683594 190.132812 324.792969 L 190.109375 324.90625 L 189.195312 327.484375 L 183.855469 325.140625 C 183.472656 324.972656 183.0625 324.886719 182.644531 324.886719 C 181.800781 324.886719 180.992188 325.246094 180.425781 325.867188 C 180.207031 326.105469 180.023438 326.386719 179.890625 326.691406 L 159.335938 373.527344 C 159.011719 374.261719 158.996094 375.074219 159.285156 375.828125 C 159.578125 376.578125 160.144531 377.167969 160.882812 377.492188 L 259.820312 420.894531 C 260.207031 421.066406 260.613281 421.152344 261.03125 421.152344 C 261.875 421.152344 262.683594 420.792969 263.25 420.171875 C 263.472656 419.929688 263.652344 419.652344 263.78125 419.351562 L 284.34375 372.511719 C 284.667969 371.777344 284.683594 370.960938 284.390625 370.210938 C 284.101562 369.460938 283.535156 368.871094 282.796875 368.550781 L 272.671875 364.109375 L 280.324219 346.675781 C 280.328125 346.667969 280.335938 346.644531 280.347656 346.609375 L 280.375 346.539062 C 280.542969 346.125 281.199219 344.652344 282.628906 343.089844 C 283.667969 341.953125 284.871094 341.035156 286.207031 340.355469 C 287.527344 339.664062 288.957031 339.054688 290.339844 338.464844 C 294.707031 336.597656 299.660156 334.480469 304.933594 328.710938 C 309.28125 323.957031 315.429688 313.019531 318.867188 305.191406 C 319.535156 303.671875 318.839844 301.894531 317.320312 301.226562 " fill-opacity="1" fill-rule="nonzero"/></g><g clip-path="url(#id2)"><path fill="#ffffff" d="M 345.34375 28.898438 L 238.855469 28.898438 C 227.902344 28.898438 218.992188 37.808594 218.992188 48.757812 L 218.992188 172.453125 C 218.992188 174.136719 220.359375 175.507812 222.042969 175.507812 C 223.726562 175.507812 225.09375 174.136719 225.09375 172.453125 L 225.09375 48.757812 C 225.09375 41.171875 231.269531 35 238.855469 35 L 345.34375 35 C 352.929688 35 359.101562 41.171875 359.101562 48.757812 L 359.101562 270.816406 C 359.101562 278.402344 352.929688 284.574219 345.34375 284.574219 L 270.03125 284.574219 C 268.347656 284.574219 266.980469 285.941406 266.980469 287.625 C 266.980469 289.308594 268.347656 290.675781 270.03125 290.675781 L 345.34375 290.675781 C 356.292969 290.675781 365.203125 281.765625 365.203125 270.816406 L 365.203125 48.757812 C 365.203125 37.808594 356.292969 28.898438 345.34375 28.898438 " fill-opacity="1" fill-rule="nonzero"/></g><path fill="#ffffff" d="M 260.773438 174.691406 L 272.320312 174.691406 L 272.320312 186.234375 L 260.773438 186.234375 Z M 255.625 188.804688 C 255.625 190.226562 256.78125 191.378906 258.199219 191.378906 L 274.890625 191.378906 C 276.3125 191.378906 277.464844 190.226562 277.464844 188.804688 L 277.464844 172.117188 C 277.464844 170.699219 276.3125 169.546875 274.890625 169.546875 L 258.199219 169.546875 C 256.78125 169.546875 255.625 170.699219 255.625 172.117188 L 255.625 188.804688 " fill-opacity="1" fill-rule="nonzero"/><path fill="#ffffff" d="M 272.320312 135.507812 L 260.773438 135.507812 L 260.773438 123.964844 L 272.320312 123.964844 Z M 274.894531 118.820312 L 258.199219 118.820312 C 256.78125 118.820312 255.625 119.972656 255.625 121.390625 L 255.625 138.078125 C 255.625 139.5 256.78125 140.652344 258.199219 140.652344 L 274.894531 140.652344 C 276.3125 140.652344 277.464844 139.5 277.464844 138.078125 L 277.464844 121.390625 C 277.464844 119.972656 276.3125 118.820312 274.894531 118.820312 " fill-opacity="1" fill-rule="nonzero"/><path fill="#ffffff" d="M 311.511719 123.964844 L 323.058594 123.964844 L 323.058594 135.507812 L 311.511719 135.507812 Z M 306.367188 121.390625 L 306.367188 138.082031 C 306.367188 139.5 307.519531 140.652344 308.9375 140.652344 L 325.628906 140.652344 C 327.050781 140.652344 328.203125 139.5 328.203125 138.082031 L 328.203125 121.390625 C 328.203125 119.972656 327.050781 118.820312 325.628906 118.820312 L 308.9375 118.820312 C 307.519531 118.820312 306.367188 119.972656 306.367188 121.390625 " fill-opacity="1" fill-rule="nonzero"/><path fill="#ffffff" d="M 284.210938 118.820312 C 282.789062 118.820312 281.636719 119.972656 281.636719 121.390625 L 281.636719 129.738281 C 281.636719 131.152344 282.789062 132.308594 284.210938 132.308594 L 291.914062 132.308594 C 293.335938 132.308594 294.488281 131.152344 294.488281 129.738281 C 294.488281 128.316406 293.335938 127.164062 291.914062 127.164062 L 286.78125 127.164062 L 286.78125 121.390625 C 286.78125 119.972656 285.628906 118.820312 284.210938 118.820312 " fill-opacity="1" fill-rule="nonzero"/><path fill="#ffffff" d="M 258.199219 149.585938 L 263.957031 149.585938 C 265.378906 149.585938 266.53125 148.433594 266.53125 147.015625 C 266.53125 145.59375 265.378906 144.441406 263.957031 144.441406 L 258.199219 144.441406 C 256.78125 144.441406 255.625 145.59375 255.625 147.015625 C 255.625 148.433594 256.78125 149.585938 258.199219 149.585938 " fill-opacity="1" fill-rule="nonzero"/><path fill="#ffffff" d="M 272.320312 147.011719 L 272.320312 155.097656 C 272.320312 156.519531 273.472656 157.671875 274.890625 157.671875 C 276.3125 157.671875 277.464844 156.519531 277.464844 155.097656 L 277.464844 149.585938 L 284.207031 149.585938 C 285.628906 149.585938 286.78125 148.433594 286.78125 147.011719 L 286.78125 138.082031 C 286.78125 136.664062 285.628906 135.507812 284.207031 135.507812 C 282.789062 135.507812 281.636719 136.664062 281.636719 138.082031 L 281.636719 144.441406 L 274.890625 144.441406 C 273.472656 144.441406 272.320312 145.59375 272.320312 147.011719 " fill-opacity="1" fill-rule="nonzero"/><path fill="#ffffff" d="M 302.445312 147.011719 L 302.445312 138.082031 C 302.445312 136.664062 301.292969 135.507812 299.875 135.507812 L 291.914062 135.507812 C 290.496094 135.507812 289.339844 136.664062 289.339844 138.082031 C 289.339844 139.5 290.496094 140.652344 291.914062 140.652344 L 297.300781 140.652344 L 297.300781 144.441406 L 291.914062 144.441406 C 290.496094 144.441406 289.339844 145.59375 289.339844 147.011719 L 289.339844 152.527344 L 284.207031 152.527344 C 282.789062 152.527344 281.636719 153.679688 281.636719 155.097656 L 281.636719 162.675781 C 281.636719 164.09375 282.789062 165.246094 284.207031 165.246094 C 285.628906 165.246094 286.78125 164.09375 286.78125 162.675781 L 286.78125 157.671875 L 291.914062 157.671875 C 293.332031 157.671875 294.488281 156.519531 294.488281 155.097656 L 294.488281 149.585938 L 299.875 149.585938 C 301.292969 149.585938 302.445312 148.433594 302.445312 147.011719 " fill-opacity="1" fill-rule="nonzero"/><path fill="#ffffff" d="M 299.875 132.308594 C 301.292969 132.308594 302.449219 131.152344 302.449219 129.738281 L 302.449219 121.390625 C 302.449219 119.972656 301.292969 118.820312 299.875 118.820312 L 295.894531 118.820312 C 294.476562 118.820312 293.320312 119.972656 293.320312 121.390625 C 293.320312 122.8125 294.476562 123.964844 295.894531 123.964844 L 297.300781 123.964844 L 297.300781 129.738281 C 297.300781 131.152344 298.457031 132.308594 299.875 132.308594 " fill-opacity="1" fill-rule="nonzero"/><path fill="#ffffff" d="M 255.625 162.675781 C 255.625 164.09375 256.78125 165.25 258.199219 165.25 C 259.617188 165.25 260.773438 164.09375 260.773438 162.675781 L 260.773438 155.101562 C 260.773438 153.679688 259.617188 152.527344 258.199219 152.527344 C 256.78125 152.527344 255.625 153.679688 255.625 155.101562 L 255.625 162.675781 " fill-opacity="1" fill-rule="nonzero"/><path fill="#ffffff" d="M 274.890625 162.011719 L 270.734375 162.011719 L 270.734375 156.945312 C 270.734375 155.527344 269.578125 154.371094 268.160156 154.371094 C 266.742188 154.371094 265.589844 155.527344 265.589844 156.945312 L 265.589844 164.585938 C 265.589844 166.003906 266.742188 167.160156 268.160156 167.160156 L 274.890625 167.160156 C 276.3125 167.160156 277.464844 166.003906 277.464844 164.585938 C 277.464844 163.167969 276.3125 162.011719 274.890625 162.011719 " fill-opacity="1" fill-rule="nonzero"/><path fill="#ffffff" d="M 284.210938 174.691406 L 291.914062 174.691406 C 293.335938 174.691406 294.488281 173.535156 294.488281 172.117188 L 294.488281 164.582031 C 294.488281 163.164062 293.335938 162.011719 291.914062 162.011719 C 290.496094 162.011719 289.34375 163.164062 289.34375 164.582031 L 289.34375 169.542969 L 284.210938 169.542969 C 282.789062 169.542969 281.636719 170.699219 281.636719 172.117188 C 281.636719 173.535156 282.789062 174.691406 284.210938 174.691406 " fill-opacity="1" fill-rule="nonzero"/><path fill="#ffffff" d="M 284.207031 186.234375 C 282.789062 186.234375 281.636719 187.386719 281.636719 188.804688 C 281.636719 190.226562 282.789062 191.378906 284.207031 191.378906 L 292.042969 191.378906 C 293.460938 191.378906 294.613281 190.226562 294.613281 188.804688 L 294.613281 180.460938 C 294.613281 179.042969 293.460938 177.890625 292.042969 177.890625 L 284.207031 177.890625 C 282.789062 177.890625 281.636719 179.042969 281.636719 180.460938 C 281.636719 181.878906 282.789062 183.035156 284.207031 183.035156 L 289.46875 183.035156 L 289.46875 186.234375 L 284.207031 186.234375 " fill-opacity="1" fill-rule="nonzero"/><path fill="#ffffff" d="M 308.9375 152.949219 L 314.011719 152.949219 C 315.429688 152.949219 316.582031 151.796875 316.582031 150.378906 C 316.582031 148.960938 315.429688 147.804688 314.011719 147.804688 L 308.9375 147.804688 C 307.519531 147.804688 306.363281 148.960938 306.363281 150.378906 C 306.363281 151.796875 307.519531 152.949219 308.9375 152.949219 " fill-opacity="1" fill-rule="nonzero"/><path fill="#ffffff" d="M 314.710938 182.539062 C 314.710938 183.957031 315.867188 185.109375 317.285156 185.109375 L 323.058594 185.109375 L 323.058594 188.804688 C 323.058594 190.226562 324.210938 191.378906 325.628906 191.378906 C 327.050781 191.378906 328.203125 190.226562 328.203125 188.804688 L 328.203125 182.539062 C 328.203125 181.117188 327.050781 179.964844 325.628906 179.964844 L 319.859375 179.964844 L 319.859375 172.117188 C 319.859375 170.699219 318.703125 169.546875 317.285156 169.546875 C 315.867188 169.546875 314.710938 170.699219 314.710938 172.117188 L 314.710938 182.539062 " fill-opacity="1" fill-rule="nonzero"/><path fill="#ffffff" d="M 308.9375 183.035156 C 310.355469 183.035156 311.511719 181.878906 311.511719 180.460938 C 311.511719 179.042969 310.355469 177.890625 308.9375 177.890625 L 304.40625 177.890625 C 302.988281 177.890625 301.832031 179.042969 301.832031 180.460938 L 301.832031 186.234375 L 299.875 186.234375 C 298.457031 186.234375 297.300781 187.386719 297.300781 188.804688 C 297.300781 190.226562 298.457031 191.378906 299.875 191.378906 L 308.9375 191.378906 C 310.355469 191.378906 311.511719 190.226562 311.511719 188.804688 C 311.511719 187.386719 310.355469 186.234375 308.9375 186.234375 L 306.980469 186.234375 L 306.980469 183.035156 L 308.9375 183.035156 " fill-opacity="1" fill-rule="nonzero"/><path fill="#ffffff" d="M 306.363281 169.546875 L 302.445312 169.546875 L 302.445312 155.101562 C 302.445312 153.679688 301.292969 152.527344 299.875 152.527344 C 298.453125 152.527344 297.300781 153.679688 297.300781 155.101562 L 297.300781 172.117188 C 297.300781 173.539062 298.453125 174.691406 299.875 174.691406 L 308.9375 174.691406 C 310.355469 174.691406 311.511719 173.539062 311.511719 172.117188 L 311.511719 160.765625 C 311.511719 159.347656 310.355469 158.191406 308.9375 158.191406 C 307.519531 158.191406 306.363281 159.347656 306.363281 160.765625 L 306.363281 169.546875 " fill-opacity="1" fill-rule="nonzero"/><path fill="#ffffff" d="M 314.710938 162.671875 C 314.710938 164.09375 315.867188 165.246094 317.285156 165.246094 L 323.054688 165.246094 L 323.054688 172.117188 C 323.054688 173.535156 324.210938 174.691406 325.628906 174.691406 C 327.050781 174.691406 328.203125 173.535156 328.203125 172.117188 L 328.203125 158.886719 C 328.203125 157.46875 327.050781 156.3125 325.628906 156.3125 C 324.210938 156.3125 323.054688 157.46875 323.054688 158.886719 L 323.054688 160.101562 L 317.285156 160.101562 C 315.867188 160.101562 314.710938 161.253906 314.710938 162.671875 " fill-opacity="1" fill-rule="nonzero"/><path fill="#ffffff" d="M 325.628906 153.765625 C 327.050781 153.765625 328.203125 152.609375 328.203125 151.191406 L 328.203125 146.589844 C 328.203125 145.171875 327.050781 144.015625 325.628906 144.015625 L 321.457031 144.015625 C 320.039062 144.015625 318.882812 145.171875 318.882812 146.589844 C 318.882812 148.007812 320.039062 149.160156 321.457031 149.160156 L 323.058594 149.160156 L 323.058594 151.191406 C 323.058594 152.609375 324.210938 153.765625 325.628906 153.765625 " fill-opacity="1" fill-rule="nonzero"/><path fill="#ffffff" d="M 266.878906 105.375 L 244.921875 105.375 C 243.355469 105.375 242.085938 106.640625 242.085938 108.210938 L 242.085938 130.160156 C 242.085938 131.726562 243.355469 132.996094 244.921875 132.996094 C 246.488281 132.996094 247.757812 131.726562 247.757812 130.160156 L 247.757812 111.042969 L 266.878906 111.042969 C 268.445312 111.042969 269.714844 109.773438 269.714844 108.210938 C 269.714844 106.640625 268.445312 105.375 266.878906 105.375 " fill-opacity="1" fill-rule="nonzero"/><path fill="#ffffff" d="M 341.929688 108.210938 C 341.929688 106.640625 340.65625 105.375 339.089844 105.375 L 317.132812 105.375 C 315.566406 105.375 314.296875 106.640625 314.296875 108.210938 C 314.296875 109.773438 315.566406 111.042969 317.132812 111.042969 L 336.253906 111.042969 L 336.253906 130.160156 C 336.253906 131.726562 337.527344 132.996094 339.089844 132.996094 C 340.65625 132.996094 341.929688 131.726562 341.929688 130.160156 L 341.929688 108.210938 " fill-opacity="1" fill-rule="nonzero"/><path fill="#ffffff" d="M 241.902344 202.355469 C 241.902344 203.921875 243.171875 205.191406 244.738281 205.191406 L 266.695312 205.191406 C 268.261719 205.191406 269.53125 203.921875 269.53125 202.355469 C 269.53125 200.789062 268.261719 199.519531 266.695312 199.519531 L 247.574219 199.519531 L 247.574219 180.402344 C 247.574219 178.835938 246.304688 177.566406 244.738281 177.566406 C 243.171875 177.566406 241.902344 178.835938 241.902344 180.402344 L 241.902344 202.355469 " fill-opacity="1" fill-rule="nonzero"/><path fill="#ffffff" d="M 316.949219 205.191406 L 338.910156 205.191406 C 340.476562 205.191406 341.742188 203.921875 341.742188 202.355469 L 341.742188 180.402344 C 341.742188 178.835938 340.476562 177.566406 338.910156 177.566406 C 337.339844 177.566406 336.070312 178.835938 336.070312 180.402344 L 336.070312 199.519531 L 316.949219 199.519531 C 315.382812 199.519531 314.113281 200.789062 314.113281 202.355469 C 314.113281 203.921875 315.382812 205.191406 316.949219 205.191406 " fill-opacity="1" fill-rule="nonzero"/><path fill="#ffffff" d="M 406.453125 150.144531 L 417.996094 150.144531 L 417.996094 161.6875 L 406.453125 161.6875 Z M 403.878906 166.832031 L 420.570312 166.832031 C 421.988281 166.832031 423.144531 165.679688 423.144531 164.261719 L 423.144531 147.574219 C 423.144531 146.152344 421.988281 145 420.570312 145 L 403.878906 145 C 402.457031 145 401.304688 146.152344 401.304688 147.574219 L 401.304688 164.261719 C 401.304688 165.679688 402.457031 166.832031 403.878906 166.832031 " fill-opacity="1" fill-rule="nonzero"/><path fill="#ffffff" d="M 379.148438 158.488281 L 386.855469 158.488281 C 388.273438 158.488281 389.425781 157.335938 389.425781 155.917969 C 389.425781 154.496094 388.273438 153.34375 386.855469 153.34375 L 381.722656 153.34375 L 381.722656 147.570312 C 381.722656 146.152344 380.566406 145 379.148438 145 C 377.730469 145 376.574219 146.152344 376.574219 147.570312 L 376.574219 155.917969 C 376.574219 157.335938 377.730469 158.488281 379.148438 158.488281 " fill-opacity="1" fill-rule="nonzero"/><path fill="#ffffff" d="M 379.148438 191.425781 C 380.570312 191.425781 381.722656 190.273438 381.722656 188.851562 L 381.722656 183.851562 L 386.855469 183.851562 C 388.277344 183.851562 389.429688 182.699219 389.429688 181.277344 L 389.429688 175.765625 L 394.816406 175.765625 C 396.234375 175.765625 397.386719 174.613281 397.386719 173.191406 L 397.386719 164.257812 C 397.386719 162.839844 396.234375 161.6875 394.816406 161.6875 L 386.855469 161.6875 C 385.4375 161.6875 384.28125 162.839844 384.28125 164.257812 C 384.28125 165.679688 385.4375 166.832031 386.855469 166.832031 L 392.242188 166.832031 L 392.242188 170.617188 L 386.855469 170.617188 C 385.4375 170.617188 384.28125 171.773438 384.28125 173.191406 L 384.28125 178.707031 L 379.148438 178.707031 C 377.730469 178.707031 376.578125 179.859375 376.578125 181.277344 L 376.578125 188.851562 C 376.578125 190.273438 377.730469 191.425781 379.148438 191.425781 " fill-opacity="1" fill-rule="nonzero"/><path fill="#ffffff" d="M 388.261719 147.570312 C 388.261719 148.992188 389.414062 150.144531 390.835938 150.144531 L 392.238281 150.144531 L 392.238281 155.917969 C 392.238281 157.335938 393.394531 158.488281 394.8125 158.488281 C 396.234375 158.488281 397.386719 157.335938 397.386719 155.917969 L 397.386719 147.570312 C 397.386719 146.152344 396.234375 145 394.8125 145 L 390.835938 145 C 389.414062 145 388.261719 146.152344 388.261719 147.570312 " fill-opacity="1" fill-rule="nonzero"/><path fill="#ffffff" d="M 379.148438 200.871094 L 386.855469 200.871094 C 388.277344 200.871094 389.429688 199.714844 389.429688 198.296875 L 389.429688 190.761719 C 389.429688 189.34375 388.277344 188.191406 386.855469 188.191406 C 385.4375 188.191406 384.28125 189.34375 384.28125 190.761719 L 384.28125 195.722656 L 379.148438 195.722656 C 377.730469 195.722656 376.574219 196.878906 376.574219 198.296875 C 376.574219 199.714844 377.730469 200.871094 379.148438 200.871094 " fill-opacity="1" fill-rule="nonzero"/><path fill="#ffffff" d="M 386.984375 204.070312 L 379.148438 204.070312 C 377.730469 204.070312 376.574219 205.222656 376.574219 206.640625 C 376.574219 208.058594 377.730469 209.214844 379.148438 209.214844 L 384.410156 209.214844 L 384.410156 212.414062 L 379.148438 212.414062 C 377.730469 212.414062 376.574219 213.566406 376.574219 214.984375 C 376.574219 216.402344 377.730469 217.558594 379.148438 217.558594 L 386.984375 217.558594 C 388.402344 217.558594 389.554688 216.402344 389.554688 214.984375 L 389.554688 206.640625 C 389.554688 205.222656 388.402344 204.070312 386.984375 204.070312 " fill-opacity="1" fill-rule="nonzero"/><path fill="#ffffff" d="M 411.523438 176.554688 C 411.523438 175.136719 410.371094 173.984375 408.949219 173.984375 L 403.878906 173.984375 C 402.460938 173.984375 401.304688 175.136719 401.304688 176.554688 C 401.304688 177.976562 402.460938 179.128906 403.878906 179.128906 L 408.949219 179.128906 C 410.371094 179.128906 411.523438 177.976562 411.523438 176.554688 " fill-opacity="1" fill-rule="nonzero"/><path fill="#ffffff" d="M 420.570312 217.558594 C 421.988281 217.558594 423.144531 216.402344 423.144531 214.984375 L 423.144531 208.714844 C 423.144531 207.296875 421.988281 206.144531 420.570312 206.144531 L 414.800781 206.144531 L 414.800781 198.296875 C 414.800781 196.878906 413.644531 195.722656 412.226562 195.722656 C 410.808594 195.722656 409.652344 196.878906 409.652344 198.296875 L 409.652344 208.714844 C 409.652344 210.132812 410.808594 211.289062 412.226562 211.289062 L 417.996094 211.289062 L 417.996094 214.984375 C 417.996094 216.402344 419.152344 217.558594 420.570312 217.558594 " fill-opacity="1" fill-rule="nonzero"/><path fill="#ffffff" d="M 403.878906 209.214844 C 405.296875 209.214844 406.453125 208.058594 406.453125 206.640625 C 406.453125 205.222656 405.296875 204.070312 403.878906 204.070312 L 399.347656 204.070312 C 397.925781 204.070312 396.773438 205.222656 396.773438 206.640625 L 396.773438 212.414062 L 394.816406 212.414062 C 393.394531 212.414062 392.242188 213.566406 392.242188 214.984375 C 392.242188 216.402344 393.394531 217.558594 394.816406 217.558594 L 403.878906 217.558594 C 405.296875 217.558594 406.453125 216.402344 406.453125 214.984375 C 406.453125 213.566406 405.296875 212.414062 403.878906 212.414062 L 401.917969 212.414062 L 401.917969 209.214844 L 403.878906 209.214844 " fill-opacity="1" fill-rule="nonzero"/><path fill="#ffffff" d="M 403.878906 184.371094 C 402.460938 184.371094 401.304688 185.523438 401.304688 186.941406 L 401.304688 195.722656 L 397.386719 195.722656 L 397.386719 181.277344 C 397.386719 179.859375 396.234375 178.707031 394.816406 178.707031 C 393.394531 178.707031 392.242188 179.859375 392.242188 181.277344 L 392.242188 198.296875 C 392.242188 199.714844 393.394531 200.871094 394.816406 200.871094 L 403.878906 200.871094 C 405.296875 200.871094 406.453125 199.714844 406.453125 198.296875 L 406.453125 186.941406 C 406.453125 185.523438 405.296875 184.371094 403.878906 184.371094 " fill-opacity="1" fill-rule="nonzero"/><path fill="#ffffff" d="M 423.144531 185.066406 C 423.144531 183.644531 421.988281 182.492188 420.570312 182.492188 C 419.152344 182.492188 417.996094 183.644531 417.996094 185.066406 L 417.996094 186.28125 L 412.226562 186.28125 C 410.808594 186.28125 409.652344 187.433594 409.652344 188.851562 C 409.652344 190.273438 410.808594 191.425781 412.226562 191.425781 L 417.996094 191.425781 L 417.996094 198.296875 C 417.996094 199.714844 419.152344 200.871094 420.570312 200.871094 C 421.988281 200.871094 423.144531 199.714844 423.144531 198.296875 L 423.144531 185.066406 " fill-opacity="1" fill-rule="nonzero"/><path fill="#ffffff" d="M 423.144531 172.769531 C 423.144531 171.351562 421.988281 170.195312 420.570312 170.195312 L 416.398438 170.195312 C 414.980469 170.195312 413.828125 171.351562 413.828125 172.769531 C 413.828125 174.1875 414.980469 175.339844 416.398438 175.339844 L 417.996094 175.339844 L 417.996094 177.371094 C 417.996094 178.789062 419.152344 179.941406 420.570312 179.941406 C 421.988281 179.941406 423.144531 178.789062 423.144531 177.371094 L 423.144531 172.769531 " fill-opacity="1" fill-rule="nonzero"/><path fill="#ffffff" d="M 434.03125 131.554688 L 412.074219 131.554688 C 410.507812 131.554688 409.238281 132.824219 409.238281 134.390625 C 409.238281 135.957031 410.507812 137.226562 412.074219 137.226562 L 431.195312 137.226562 L 431.195312 156.34375 C 431.195312 157.90625 432.464844 159.175781 434.03125 159.175781 C 435.597656 159.175781 436.867188 157.90625 436.867188 156.34375 L 436.867188 134.390625 C 436.867188 132.824219 435.597656 131.554688 434.03125 131.554688 " fill-opacity="1" fill-rule="nonzero"/><path fill="#ffffff" d="M 433.847656 203.746094 C 432.28125 203.746094 431.015625 205.015625 431.015625 206.582031 L 431.015625 225.699219 L 411.890625 225.699219 C 410.324219 225.699219 409.054688 226.96875 409.054688 228.53125 C 409.054688 230.097656 410.324219 231.371094 411.890625 231.371094 L 433.847656 231.371094 C 435.417969 231.371094 436.683594 230.097656 436.683594 228.53125 L 436.683594 206.582031 C 436.683594 205.015625 435.417969 203.746094 433.847656 203.746094 " fill-opacity="1" fill-rule="nonzero"/><path fill="#ffffff" d="M 300.097656 47.703125 L 284.351562 47.703125 C 282.640625 47.703125 281.253906 49.089844 281.253906 50.800781 C 281.253906 52.507812 282.640625 53.894531 284.351562 53.894531 L 300.097656 53.894531 C 301.808594 53.894531 303.195312 52.507812 303.195312 50.800781 C 303.195312 49.089844 301.808594 47.703125 300.097656 47.703125 " fill-opacity="1" fill-rule="nonzero"/><path fill="#ffffff" d="M 389.707031 76.78125 C 389.710938 76.78125 389.710938 76.78125 389.714844 76.78125 C 391.421875 76.78125 392.804688 75.402344 392.8125 73.691406 L 392.859375 53.289062 C 392.863281 51.578125 391.480469 50.1875 389.769531 50.183594 C 389.765625 50.183594 389.765625 50.183594 389.761719 50.183594 C 388.054688 50.183594 386.667969 51.566406 386.664062 53.273438 L 386.617188 73.679688 C 386.613281 75.386719 387.996094 76.777344 389.707031 76.78125 " fill-opacity="1" fill-rule="nonzero"/><g clip-path="url(#id3)"><path fill="#ffffff" d="M 437.941406 97.613281 L 417.53125 97.566406 C 417.53125 97.566406 417.527344 97.566406 417.527344 97.566406 C 415.816406 97.566406 414.433594 98.949219 414.429688 100.65625 C 414.425781 102.367188 415.804688 103.757812 417.519531 103.761719 L 437.925781 103.808594 C 437.929688 103.808594 437.933594 103.808594 437.933594 103.808594 C 439.640625 103.808594 441.027344 102.425781 441.03125 100.71875 C 441.035156 99.007812 439.652344 97.617188 437.941406 97.613281 " fill-opacity="1" fill-rule="nonzero"/></g><path fill="#ffffff" d="M 413.265625 82 C 414.054688 82 414.847656 81.699219 415.449219 81.097656 L 429.914062 66.703125 C 431.128906 65.496094 431.132812 63.535156 429.925781 62.324219 C 428.71875 61.113281 426.757812 61.105469 425.546875 62.3125 L 411.078125 76.707031 C 409.867188 77.914062 409.859375 79.875 411.070312 81.085938 C 411.675781 81.695312 412.46875 82 413.265625 82 " fill-opacity="1" fill-rule="nonzero"/></svg>