<svg xmlns="http://www.w3.org/2000/svg" xmlns:xlink="http://www.w3.org/1999/xlink" width="1024" zoomAndPan="magnify" viewBox="0 0 768 767.999994" height="1024" preserveAspectRatio="xMidYMid meet" version="1.0"><defs><clipPath id="id1"><path d="M 75 105.722656 L 693 105.722656 L 693 662.222656 L 75 662.222656 Z M 75 105.722656 " clip-rule="nonzero"/></clipPath><clipPath id="id2"><path d="M 75 105.722656 L 693 105.722656 L 693 662.222656 L 75 662.222656 Z M 75 105.722656 " clip-rule="nonzero"/></clipPath><clipPath id="id3"><path d="M 75 105.722656 L 693 105.722656 L 693 662.222656 L 75 662.222656 Z M 75 105.722656 " clip-rule="nonzero"/></clipPath></defs><g clip-path="url(#id1)"><path fill="#3182ce" d="M 692.789062 486.445312 L 692.789062 474.730469 L 625.609375 474.730469 C 624.71875 473.484375 623.816406 472.25 622.898438 471.027344 C 622.730469 470.808594 622.5625 470.59375 622.394531 470.375 C 621.652344 469.394531 620.898438 468.421875 620.132812 467.460938 C 619.894531 467.160156 619.65625 466.867188 619.414062 466.570312 C 618.691406 465.671875 617.960938 464.78125 617.21875 463.898438 C 616.984375 463.621094 616.75 463.34375 616.515625 463.070312 C 615.71875 462.132812 614.910156 461.203125 614.089844 460.28125 C 613.921875 460.089844 613.75 459.894531 613.578125 459.703125 C 609.421875 455.070312 605.011719 450.667969 600.371094 446.515625 C 600.40625 446.449219 600.4375 446.375 600.449219 446.300781 C 600.464844 446.222656 600.464844 446.140625 600.449219 446.054688 C 600.070312 444.175781 599.652344 442.304688 599.214844 440.433594 C 599.074219 439.824219 598.925781 439.214844 598.773438 438.605469 C 598.460938 437.320312 598.132812 436.035156 597.789062 434.757812 C 597.609375 434.074219 597.433594 433.394531 597.246094 432.714844 C 596.789062 431.085938 596.316406 429.460938 595.816406 427.84375 C 595.503906 426.828125 595.171875 425.816406 594.84375 424.800781 C 594.617188 424.109375 594.390625 423.417969 594.15625 422.726562 C 593.765625 421.570312 593.367188 420.414062 592.953125 419.261719 C 592.832031 418.933594 592.707031 418.605469 592.589844 418.277344 C 591.652344 415.710938 590.660156 413.160156 589.613281 410.628906 C 589.632812 410.671875 589.648438 410.71875 589.667969 410.761719 L 618.640625 410.761719 C 619.023438 410.761719 619.335938 410.449219 619.335938 410.066406 L 619.335938 154.503906 C 619.335938 154.121094 619.023438 153.8125 618.640625 153.8125 L 502.539062 153.8125 L 502.511719 153.882812 L 520.160156 106.65625 C 520.257812 106.390625 520.183594 106.085938 519.964844 105.894531 C 519.75 105.703125 519.4375 105.667969 519.183594 105.800781 C 501.175781 115.25 484.558594 118.832031 469.789062 116.441406 C 464.261719 115.546875 458.800781 113.773438 453.523438 112.058594 C 447.636719 110.144531 441.550781 108.167969 435.292969 107.375 C 429.941406 106.695312 424.472656 106.882812 418.875 107.152344 C 408.011719 107.679688 396.503906 108.476562 385.726562 111.851562 C 367.203125 117.65625 350.898438 131.597656 342.113281 149.148438 C 341.730469 149.910156 341.382812 150.652344 341.046875 151.390625 C 341 151.492188 340.957031 151.59375 340.910156 151.695312 C 340.589844 152.414062 340.292969 153.117188 340.015625 153.8125 L 197.148438 153.8125 C 196.765625 153.8125 196.453125 154.121094 196.453125 154.503906 L 196.453125 410.070312 C 196.453125 410.453125 196.765625 410.761719 197.148438 410.761719 L 267.542969 410.761719 C 267.546875 410.75 267.550781 410.734375 267.558594 410.722656 C 266.617188 413.25 265.710938 415.789062 264.8125 418.324219 C 264.679688 418.707031 264.546875 419.082031 264.414062 419.457031 C 263.554688 421.910156 262.703125 424.351562 261.871094 426.765625 C 260.628906 430.359375 259.386719 433.949219 258.109375 437.53125 C 257.253906 439.917969 256.382812 442.304688 255.496094 444.6875 C 255.269531 445.292969 255.035156 445.894531 254.808594 446.5 C 254.136719 448.28125 253.464844 450.066406 252.777344 451.84375 C 252.546875 452.4375 252.308594 453.027344 252.078125 453.621094 C 251.378906 455.414062 250.679688 457.207031 249.964844 458.992188 C 249.753906 459.511719 249.539062 460.03125 249.332031 460.550781 C 248.578125 462.414062 247.824219 464.277344 247.058594 466.132812 C 246.886719 466.554688 246.707031 466.972656 246.535156 467.390625 C 245.71875 469.351562 244.902344 471.3125 244.070312 473.269531 C 243.945312 473.566406 243.816406 473.859375 243.691406 474.152344 C 242.804688 476.238281 241.910156 478.320312 241.007812 480.394531 C 240.933594 480.5625 240.859375 480.730469 240.789062 480.898438 C 239.828125 483.101562 238.859375 485.300781 237.886719 487.496094 C 237.851562 487.570312 237.820312 487.640625 237.789062 487.714844 C 236.769531 490 235.746094 492.285156 234.710938 494.5625 C 234.710938 494.5625 234.710938 494.5625 234.710938 494.566406 C 233.789062 493.035156 232.722656 491.59375 231.53125 490.25 C 231.503906 490.222656 231.480469 490.195312 231.457031 490.164062 C 230.261719 488.824219 228.945312 487.578125 227.523438 486.445312 L 238.347656 486.445312 C 240.074219 482.550781 241.773438 478.648438 243.445312 474.730469 L 225.921875 474.730469 C 225.988281 474.375 226.050781 474.023438 226.117188 473.667969 C 226.496094 471.652344 226.886719 469.566406 226.964844 467.535156 C 227.109375 463.746094 226.148438 460.085938 225.21875 456.542969 L 222.183594 444.96875 C 222.023438 444.359375 221.804688 443.523438 221.144531 442.957031 C 220.46875 442.375 219.582031 442.296875 218.933594 442.238281 L 200.464844 440.59375 C 195.261719 438.273438 187.429688 437.179688 182.324219 441.679688 C 181.226562 442.648438 180.332031 443.816406 179.464844 444.945312 C 178.265625 446.507812 177.128906 447.984375 175.542969 448.898438 C 175.09375 449.160156 174.617188 449.367188 174.140625 449.578125 C 173.371094 449.914062 172.574219 450.265625 171.867188 450.8125 C 170.207031 452.09375 169.460938 454.058594 168.78125 456.125 C 167.117188 461.179688 165.628906 466.363281 164.347656 471.527344 C 164.246094 471.921875 164.097656 472.523438 164.332031 473.113281 C 164.535156 473.613281 164.972656 474.007812 165.632812 474.285156 C 167.6875 475.136719 170.28125 474.515625 172.230469 472.699219 C 172.605469 472.351562 172.933594 471.972656 173.246094 471.578125 C 173.347656 471.449219 173.445312 471.316406 173.542969 471.183594 C 173.742188 470.910156 173.925781 470.632812 174.101562 470.351562 C 174.40625 469.863281 174.691406 469.367188 174.949219 468.867188 C 174.949219 469.359375 174.976562 469.847656 175.023438 470.339844 C 175.023438 470.359375 175.027344 470.378906 175.027344 470.398438 C 175.171875 471.878906 175.515625 473.332031 176.039062 474.726562 L 75.550781 474.726562 L 75.550781 486.441406 L 180.003906 486.441406 L 179.8125 488.007812 C 179.558594 488.195312 179.300781 488.394531 179.039062 488.601562 C 178.996094 488.636719 178.953125 488.671875 178.910156 488.707031 C 178.6875 488.882812 178.464844 489.066406 178.238281 489.257812 C 178.152344 489.332031 178.0625 489.414062 177.976562 489.488281 C 177.792969 489.648438 177.609375 489.808594 177.425781 489.976562 C 177.3125 490.082031 177.199219 490.195312 177.089844 490.304688 C 176.929688 490.457031 176.773438 490.605469 176.621094 490.761719 C 176.492188 490.894531 176.367188 491.039062 176.242188 491.175781 C 176.109375 491.324219 175.972656 491.460938 175.84375 491.613281 C 175.703125 491.78125 175.574219 491.953125 175.4375 492.128906 C 175.332031 492.261719 175.21875 492.394531 175.117188 492.535156 C 174.964844 492.742188 174.828125 492.964844 174.6875 493.183594 C 174.609375 493.296875 174.527344 493.40625 174.457031 493.523438 C 174.25 493.867188 174.058594 494.222656 173.886719 494.585938 C 172.917969 496.625 172.578125 498.832031 172.25 500.964844 L 168.570312 524.894531 C 168.433594 525.203125 168.304688 525.515625 168.183594 525.835938 C 168.152344 525.921875 168.117188 526.011719 168.085938 526.105469 C 167.992188 526.371094 167.902344 526.644531 167.820312 526.921875 C 167.765625 527.105469 167.71875 527.296875 167.671875 527.484375 C 167.621094 527.691406 167.566406 527.894531 167.523438 528.105469 C 167.4375 528.527344 167.367188 528.957031 167.320312 529.394531 C 166.941406 534.484375 166.3125 539.761719 165.707031 544.863281 C 164.675781 553.511719 163.609375 562.457031 163.605469 571.402344 C 163.597656 588.160156 167.777344 602.195312 175.695312 611.988281 C 182.085938 619.898438 192.824219 626.109375 203.878906 626.109375 C 207.453125 626.109375 211.058594 625.460938 214.566406 624.007812 C 219.667969 621.894531 223.964844 618.34375 228.277344 614.585938 C 230.140625 612.960938 231.992188 611.324219 233.828125 609.671875 C 234.609375 608.96875 235.375 608.25 236.152344 607.542969 C 237.195312 606.589844 238.246094 605.640625 239.28125 604.679688 C 240.34375 603.6875 241.390625 602.683594 242.445312 601.683594 C 243.175781 600.992188 243.910156 600.304688 244.636719 599.609375 C 245.859375 598.433594 247.066406 597.242188 248.277344 596.054688 C 248.820312 595.519531 249.367188 594.996094 249.90625 594.460938 C 251.242188 593.128906 252.566406 591.785156 253.882812 590.441406 C 254.28125 590.039062 254.683594 589.640625 255.078125 589.234375 C 256.503906 587.773438 257.914062 586.296875 259.316406 584.816406 C 259.597656 584.519531 259.882812 584.230469 260.164062 583.933594 C 261.640625 582.367188 263.101562 580.785156 264.554688 579.199219 C 264.753906 578.980469 264.957031 578.765625 265.15625 578.550781 C 266.691406 576.871094 268.207031 575.179688 269.714844 573.480469 C 269.828125 573.351562 269.941406 573.226562 270.054688 573.097656 C 271.617188 571.328125 273.164062 569.550781 274.699219 567.757812 C 274.753906 567.691406 274.8125 567.628906 274.867188 567.5625 C 276.441406 565.722656 277.996094 563.871094 279.539062 562.007812 C 279.558594 561.988281 279.574219 561.96875 279.589844 561.949219 C 288.964844 550.625 297.785156 538.835938 306.023438 526.632812 C 306.027344 526.628906 306.027344 526.625 306.03125 526.621094 C 306.03125 526.621094 306.03125 526.621094 306.03125 526.625 C 306.121094 526.84375 306.222656 527.105469 306.335938 527.414062 C 306.335938 527.414062 306.335938 527.417969 306.339844 527.417969 C 308.316406 534.621094 310.367188 541.800781 312.496094 548.949219 C 312.496094 548.957031 312.5 548.964844 312.503906 548.972656 C 313.484375 552.277344 314.488281 555.574219 315.5 558.863281 C 315.589844 559.148438 315.671875 559.433594 315.761719 559.71875 C 316.859375 563.265625 317.972656 566.804688 319.105469 570.332031 C 319.097656 570.957031 319.082031 571.578125 319.082031 572.203125 L 319.082031 661.421875 C 319.082031 661.804688 319.394531 662.113281 319.777344 662.113281 L 656.023438 662.113281 C 656.40625 662.113281 656.714844 661.804688 656.714844 661.421875 L 656.714844 572.203125 C 656.714844 570.441406 656.679688 568.691406 656.625 566.941406 C 656.609375 566.433594 656.589844 565.929688 656.566406 565.421875 C 656.515625 564.101562 656.445312 562.785156 656.363281 561.476562 C 656.335938 561 656.308594 560.523438 656.273438 560.050781 C 656.148438 558.308594 656.003906 556.570312 655.828125 554.84375 C 655.820312 554.773438 655.8125 554.703125 655.800781 554.628906 C 655.628906 552.96875 655.425781 551.320312 655.207031 549.671875 C 655.148438 549.234375 655.082031 548.796875 655.019531 548.359375 C 654.824219 546.964844 654.609375 545.578125 654.375 544.191406 C 654.316406 543.847656 654.261719 543.5 654.203125 543.15625 C 653.898438 541.40625 653.570312 539.664062 653.210938 537.929688 C 653.207031 537.914062 653.203125 537.894531 653.199219 537.875 C 652.847656 536.1875 652.464844 534.511719 652.066406 532.84375 C 651.988281 532.53125 651.910156 532.214844 651.835938 531.902344 C 651.457031 530.359375 651.058594 528.828125 650.636719 527.304688 C 650.59375 527.15625 650.554688 527.003906 650.511719 526.851562 C 649.542969 523.382812 648.460938 519.960938 647.277344 516.585938 C 647.214844 516.414062 647.152344 516.238281 647.089844 516.0625 C 645.277344 510.941406 643.222656 505.929688 640.941406 501.046875 C 640.914062 500.992188 640.886719 500.933594 640.859375 500.875 C 638.53125 495.910156 635.96875 491.074219 633.183594 486.378906 C 633.195312 486.402344 633.207031 486.421875 633.21875 486.441406 L 692.789062 486.441406 Z M 448.714844 268.808594 C 448.628906 270.136719 448.582031 271.464844 448.574219 272.796875 C 448.582031 271.46875 448.628906 270.136719 448.714844 268.808594 Z M 383.707031 273.6875 C 383.753906 273.820312 383.796875 273.953125 383.84375 274.085938 C 383.832031 274.058594 383.824219 274.03125 383.8125 274 C 383.777344 273.894531 383.746094 273.789062 383.707031 273.6875 Z M 384.441406 275.855469 C 384.417969 275.769531 384.394531 275.679688 384.367188 275.597656 C 384.394531 275.679688 384.414062 275.769531 384.441406 275.855469 Z M 208.722656 442.726562 C 207.96875 442.710938 207.226562 442.675781 206.488281 442.613281 C 206.472656 442.613281 206.453125 442.609375 206.4375 442.609375 C 205.699219 442.546875 204.96875 442.457031 204.25 442.328125 Z M 181.375 486.660156 C 181.378906 486.734375 181.382812 486.804688 181.390625 486.875 C 181.375 486.886719 181.359375 486.898438 181.34375 486.90625 Z M 227.519531 486.445312 L 227.476562 486.445312 C 227.179688 486.210938 226.898438 485.953125 226.59375 485.726562 C 226.851562 485.917969 227.105469 486.121094 227.359375 486.320312 C 227.410156 486.363281 227.464844 486.402344 227.519531 486.445312 Z M 165.613281 472.359375 C 165.695312 472.546875 165.800781 472.71875 165.921875 472.875 C 165.859375 472.839844 165.804688 472.800781 165.757812 472.761719 C 165.699219 472.707031 165.644531 472.65625 165.621094 472.601562 C 165.597656 472.542969 165.605469 472.449219 165.613281 472.359375 Z M 170.121094 472.53125 C 170.679688 472.117188 171.21875 471.671875 171.726562 471.199219 C 171.578125 471.359375 171.445312 471.535156 171.285156 471.683594 C 170.949219 472 170.550781 472.289062 170.121094 472.53125 Z M 170.121094 472.53125 " fill-opacity="1" fill-rule="nonzero"/></g><path fill="#3182ce" d="M 225.742188 475.757812 C 225.707031 475.953125 225.675781 476.152344 225.644531 476.347656 C 225.601562 476.625 225.5625 476.898438 225.523438 477.167969 C 225.492188 477.398438 225.464844 477.628906 225.4375 477.859375 C 225.410156 478.105469 225.386719 478.351562 225.367188 478.59375 C 225.34375 478.835938 225.332031 479.078125 225.320312 479.320312 C 225.3125 479.546875 225.300781 479.773438 225.300781 480 C 225.296875 480.253906 225.308594 480.5 225.320312 480.746094 C 225.328125 480.957031 225.335938 481.167969 225.355469 481.375 C 225.378906 481.636719 225.421875 481.890625 225.460938 482.148438 C 225.492188 482.335938 225.515625 482.527344 225.554688 482.710938 C 225.617188 482.996094 225.707031 483.277344 225.796875 483.554688 C 225.84375 483.707031 225.878906 483.859375 225.933594 484.007812 C 226.09375 484.433594 226.285156 484.851562 226.519531 485.257812 C 226.5625 485.335938 226.585938 485.414062 226.597656 485.492188 C 226.609375 485.570312 226.601562 485.648438 226.589844 485.722656 C 226.589844 485.722656 226.59375 485.722656 226.59375 485.722656 C 226.910156 485.957031 227.214844 486.199219 227.523438 486.445312 L 238.347656 486.445312 C 240.070312 482.550781 241.773438 478.648438 243.445312 474.730469 L 225.921875 474.730469 C 225.855469 475.078125 225.796875 475.417969 225.742188 475.757812 Z M 225.742188 475.757812 " fill-opacity="1" fill-rule="nonzero"/><g clip-path="url(#id2)"><path fill="#3182ce" d="M 692.789062 486.445312 L 692.789062 474.730469 L 625.609375 474.730469 C 618.269531 464.40625 609.789062 454.945312 600.367188 446.515625 C 600.441406 446.378906 600.480469 446.21875 600.445312 446.054688 C 597.988281 433.839844 594.285156 421.859375 589.457031 410.253906 C 589.527344 410.421875 589.59375 410.59375 589.667969 410.761719 L 618.640625 410.761719 C 619.023438 410.761719 619.332031 410.449219 619.332031 410.066406 L 619.332031 154.503906 C 619.332031 154.121094 619.023438 153.8125 618.640625 153.8125 L 502.535156 153.8125 L 502.277344 154.503906 L 520.15625 106.65625 C 520.253906 106.390625 520.179688 106.085938 519.964844 105.894531 C 519.746094 105.703125 519.4375 105.667969 519.183594 105.800781 C 501.171875 115.25 484.554688 118.832031 469.789062 116.441406 C 464.257812 115.546875 458.800781 113.773438 453.519531 112.058594 C 447.636719 110.144531 441.550781 108.167969 435.289062 107.375 C 429.9375 106.695312 424.46875 106.882812 418.871094 107.152344 C 408.007812 107.679688 396.5 108.476562 385.722656 111.851562 C 367.199219 117.65625 350.894531 131.597656 342.109375 149.148438 C 341.300781 150.757812 340.613281 152.304688 340.015625 153.8125 L 197.148438 153.8125 C 196.765625 153.8125 196.453125 154.121094 196.453125 154.503906 L 196.453125 410.070312 C 196.453125 410.453125 196.765625 410.761719 197.148438 410.761719 L 267.542969 410.761719 C 267.574219 410.675781 267.609375 410.585938 267.640625 410.5 C 265.625 415.921875 263.71875 421.414062 261.871094 426.765625 C 260.628906 430.359375 259.386719 433.953125 258.109375 437.53125 C 251.214844 456.828125 243.195312 475.84375 234.707031 494.566406 C 232.84375 491.476562 230.398438 488.738281 227.519531 486.445312 L 227.476562 486.445312 C 227.179688 486.210938 226.898438 485.953125 226.59375 485.722656 C 226.59375 485.722656 226.59375 485.722656 226.589844 485.722656 C 226.605469 485.648438 226.605469 485.570312 226.597656 485.492188 C 226.582031 485.414062 226.5625 485.335938 226.519531 485.261719 C 226.285156 484.851562 226.097656 484.433594 225.933594 484.011719 C 225.878906 483.859375 225.84375 483.707031 225.796875 483.554688 C 225.707031 483.277344 225.617188 483 225.554688 482.714844 C 225.515625 482.527344 225.492188 482.335938 225.460938 482.148438 C 225.421875 481.894531 225.378906 481.636719 225.355469 481.378906 C 225.335938 481.167969 225.328125 480.957031 225.320312 480.746094 C 225.308594 480.5 225.296875 480.253906 225.300781 480.003906 C 225.300781 479.777344 225.3125 479.550781 225.320312 479.320312 C 225.332031 479.082031 225.34375 478.839844 225.367188 478.597656 C 225.386719 478.351562 225.410156 478.105469 225.4375 477.859375 C 225.464844 477.632812 225.492188 477.402344 225.523438 477.171875 C 225.5625 476.898438 225.601562 476.625 225.644531 476.351562 C 225.675781 476.15625 225.707031 475.957031 225.742188 475.757812 C 225.800781 475.417969 225.855469 475.078125 225.921875 474.734375 C 225.921875 474.734375 225.921875 474.734375 225.921875 474.730469 C 225.984375 474.378906 226.050781 474.027344 226.117188 473.671875 C 226.492188 471.65625 226.886719 469.570312 226.960938 467.535156 C 227.105469 463.75 226.144531 460.089844 225.214844 456.546875 L 222.179688 444.972656 C 222.019531 444.363281 221.800781 443.527344 221.144531 442.960938 C 220.464844 442.378906 219.578125 442.296875 218.929688 442.242188 L 200.464844 440.597656 C 195.257812 438.273438 187.425781 437.183594 182.320312 441.683594 C 181.222656 442.652344 180.328125 443.816406 179.460938 444.945312 C 178.261719 446.511719 177.125 447.984375 175.539062 448.902344 C 175.089844 449.160156 174.613281 449.371094 174.136719 449.578125 C 173.367188 449.917969 172.570312 450.269531 171.863281 450.816406 C 170.203125 452.097656 169.457031 454.058594 168.777344 456.125 C 167.117188 461.183594 165.625 466.367188 164.34375 471.53125 C 164.246094 471.925781 164.097656 472.527344 164.332031 473.113281 C 164.53125 473.617188 164.96875 474.011719 165.628906 474.285156 C 167.6875 475.136719 170.277344 474.519531 172.230469 472.703125 C 173.40625 471.609375 174.242188 470.238281 174.949219 468.871094 C 174.953125 470.867188 175.332031 472.851562 176.039062 474.730469 L 75.550781 474.730469 L 75.550781 486.445312 L 180.003906 486.445312 L 179.8125 488.011719 C 177.765625 489.550781 175.269531 491.683594 173.886719 494.59375 C 172.921875 496.632812 172.582031 498.835938 172.253906 500.96875 L 168.574219 524.898438 C 167.941406 526.300781 167.492188 527.792969 167.324219 529.398438 C 166.945312 534.488281 166.316406 539.765625 165.707031 544.867188 C 164.679688 553.515625 163.613281 562.460938 163.609375 571.40625 C 163.601562 588.164062 167.78125 602.199219 175.695312 611.996094 C 182.089844 619.90625 192.824219 626.113281 203.878906 626.113281 C 207.453125 626.113281 211.0625 625.464844 214.566406 624.015625 C 219.671875 621.902344 223.964844 618.351562 228.28125 614.589844 C 257.90625 588.777344 284.050781 559.1875 306.03125 526.628906 C 306.121094 526.847656 306.222656 527.109375 306.335938 527.417969 C 310.296875 541.839844 314.558594 556.183594 319.105469 570.335938 C 319.097656 570.960938 319.078125 571.582031 319.078125 572.207031 L 319.078125 661.425781 C 319.078125 661.808594 319.390625 662.121094 319.773438 662.121094 L 656.019531 662.121094 C 656.402344 662.121094 656.714844 661.808594 656.714844 661.425781 L 656.714844 572.207031 C 656.714844 540.890625 648.121094 511.546875 633.179688 486.386719 C 633.191406 486.40625 633.207031 486.425781 633.21875 486.445312 Z M 481.558594 197.121094 C 481.597656 197.179688 481.636719 197.234375 481.671875 197.292969 C 481.636719 197.234375 481.597656 197.179688 481.558594 197.121094 Z M 482.070312 197.964844 C 482.140625 198.089844 482.199219 198.21875 482.265625 198.34375 C 482.203125 198.21875 482.136719 198.09375 482.070312 197.964844 Z M 482.519531 198.867188 C 482.660156 199.183594 482.789062 199.5 482.894531 199.808594 C 482.789062 199.5 482.65625 199.183594 482.519531 198.867188 Z M 448.714844 268.804688 C 448.375 274.125 448.640625 279.472656 449.511719 284.726562 C 448.640625 279.472656 448.375 274.125 448.714844 268.804688 Z M 386.601562 289.457031 C 386.554688 284.050781 385.578125 278.753906 383.707031 273.6875 C 385.578125 278.753906 386.554688 284.050781 386.601562 289.457031 Z M 386.601562 289.457031 C 386.589844 289.460938 386.578125 289.464844 386.566406 289.464844 C 386.578125 289.464844 386.589844 289.460938 386.601562 289.457031 Z M 376.820312 292.066406 C 378.4375 291.589844 380.066406 291.132812 381.695312 290.699219 C 380.066406 291.132812 378.441406 291.589844 376.820312 292.066406 Z M 383.703125 273.683594 C 383.535156 273.746094 383.363281 273.796875 383.199219 273.859375 C 383.367188 273.796875 383.535156 273.746094 383.703125 273.683594 Z M 376.546875 263.855469 C 377.050781 264.738281 377.566406 265.617188 378.082031 266.496094 C 377.566406 265.617188 377.050781 264.738281 376.546875 263.855469 Z M 379.382812 268.722656 C 380.359375 270.351562 381.351562 271.972656 382.363281 273.582031 C 381.347656 271.972656 380.355469 270.351562 379.382812 268.722656 Z M 362.253906 234.414062 Z M 361.0625 235.304688 C 361.0625 235.304688 361.0625 235.308594 361.0625 235.308594 C 361.0625 235.308594 361.0625 235.304688 361.0625 235.304688 Z M 343.597656 202.605469 C 343.617188 202.59375 343.636719 202.582031 343.65625 202.570312 C 343.636719 202.582031 343.617188 202.589844 343.597656 202.605469 Z M 341.929688 194.097656 C 341.972656 194.253906 342.019531 194.410156 342.0625 194.570312 C 342.019531 194.410156 341.976562 194.253906 341.929688 194.097656 Z M 364.351562 239.390625 C 364.382812 239.464844 364.414062 239.539062 364.449219 239.613281 C 364.414062 239.539062 364.382812 239.464844 364.351562 239.390625 Z M 366.546875 244.3125 C 366.628906 244.492188 366.710938 244.671875 366.792969 244.847656 C 366.710938 244.671875 366.628906 244.492188 366.546875 244.3125 Z M 368.855469 249.21875 C 369.003906 249.519531 369.152344 249.820312 369.300781 250.121094 C 369.152344 249.820312 369.003906 249.519531 368.855469 249.21875 Z M 371.289062 254.101562 C 371.519531 254.554688 371.753906 255 371.988281 255.449219 C 371.753906 255 371.519531 254.554688 371.289062 254.101562 Z M 373.851562 258.984375 C 374.191406 259.609375 374.539062 260.234375 374.882812 260.859375 C 374.539062 260.234375 374.1875 259.613281 373.851562 258.984375 Z M 453.769531 285.152344 C 455.230469 285.308594 456.6875 285.484375 458.140625 285.679688 C 456.6875 285.484375 455.230469 285.3125 453.769531 285.152344 Z M 455.621094 258.957031 C 455.789062 258.425781 455.964844 257.890625 456.132812 257.355469 C 455.964844 257.890625 455.792969 258.425781 455.621094 258.957031 Z M 344.46875 202.152344 C 344.453125 202.113281 344.441406 202.070312 344.425781 202.027344 C 344.4375 202.070312 344.453125 202.113281 344.46875 202.152344 Z M 340.667969 189.421875 C 340.519531 188.835938 340.390625 188.242188 340.25 187.65625 C 340.386719 188.246094 340.519531 188.835938 340.667969 189.421875 Z M 339.421875 184.054688 C 339.023438 182.175781 338.65625 180.289062 338.335938 178.398438 C 338.65625 180.289062 339.023438 182.175781 339.421875 184.054688 Z M 342.410156 315.28125 C 342.308594 315.335938 342.203125 315.394531 342.101562 315.449219 C 342.207031 315.394531 342.308594 315.335938 342.410156 315.28125 Z M 346.484375 313.210938 C 346.429688 313.238281 346.375 313.265625 346.320312 313.292969 C 346.375 313.265625 346.429688 313.238281 346.484375 313.210938 Z M 350.601562 311.316406 C 350.585938 311.324219 350.570312 311.332031 350.554688 311.339844 C 350.570312 311.332031 350.585938 311.324219 350.601562 311.316406 Z M 371.75 304.539062 Z M 460.769531 287.882812 C 460.675781 287.789062 460.578125 287.699219 460.480469 287.605469 C 460.578125 287.699219 460.675781 287.789062 460.769531 287.882812 Z M 459.265625 247.070312 C 459.34375 246.804688 459.421875 246.539062 459.496094 246.273438 C 459.421875 246.539062 459.34375 246.804688 459.265625 247.070312 Z M 465.417969 224.035156 C 465.417969 224.039062 465.417969 224.039062 465.417969 224.035156 C 465.417969 224.039062 465.417969 224.039062 465.417969 224.035156 Z M 469.539062 224.523438 C 468.878906 224.523438 468.203125 224.480469 467.511719 224.398438 C 468.199219 224.472656 468.878906 224.523438 469.539062 224.523438 Z M 480.054688 195.324219 C 479.890625 195.085938 479.707031 194.886719 479.507812 194.726562 C 479.710938 194.882812 479.890625 195.085938 480.054688 195.324219 Z M 478.855469 194.339844 C 479.082031 194.429688 479.296875 194.566406 479.5 194.722656 C 479.300781 194.558594 479.082031 194.429688 478.855469 194.339844 Z M 478.605469 194.253906 C 478.605469 194.257812 478.609375 194.257812 478.613281 194.261719 C 478.609375 194.261719 478.605469 194.257812 478.605469 194.253906 Z M 338.382812 317.519531 C 338.222656 317.613281 338.0625 317.714844 337.902344 317.808594 C 338.0625 317.714844 338.222656 317.613281 338.382812 317.519531 Z M 308.429688 341.394531 C 309.570312 340.191406 310.730469 339.007812 311.902344 337.847656 C 310.726562 339.007812 309.570312 340.191406 308.429688 341.394531 Z M 313.378906 336.441406 C 314.074219 335.777344 314.761719 335.105469 315.464844 334.460938 C 314.761719 335.105469 314.074219 335.777344 313.378906 336.441406 Z M 317.4375 332.707031 C 317.996094 332.214844 318.550781 331.707031 319.113281 331.226562 C 318.550781 331.707031 317.996094 332.214844 317.4375 332.707031 Z M 321.460938 329.285156 C 321.917969 328.910156 322.371094 328.523438 322.835938 328.15625 C 322.371094 328.527344 321.917969 328.914062 321.460938 329.285156 Z M 325.511719 326.101562 C 325.886719 325.820312 326.253906 325.523438 326.628906 325.246094 C 326.253906 325.527344 325.886719 325.820312 325.511719 326.101562 Z M 329.601562 323.132812 C 329.898438 322.925781 330.191406 322.710938 330.488281 322.503906 C 330.191406 322.710938 329.898438 322.925781 329.601562 323.132812 Z M 333.734375 320.371094 C 333.960938 320.226562 334.183594 320.074219 334.410156 319.929688 C 334.183594 320.074219 333.960938 320.222656 333.734375 320.371094 Z M 548.316406 347.457031 C 549.871094 349.089844 551.40625 350.75 552.914062 352.4375 C 554.257812 353.941406 555.566406 355.46875 556.863281 357 C 555.566406 355.46875 554.257812 353.941406 552.914062 352.4375 C 551.40625 350.75 549.871094 349.085938 548.316406 347.457031 Z M 543.582031 342.644531 C 544.421875 343.472656 545.242188 344.328125 546.070312 345.171875 C 545.242188 344.328125 544.421875 343.472656 543.582031 342.644531 Z M 587.894531 406.601562 C 587.714844 406.195312 587.53125 405.792969 587.351562 405.386719 C 587.53125 405.792969 587.714844 406.195312 587.894531 406.601562 Z M 584.621094 399.554688 C 584.40625 399.113281 584.195312 398.667969 583.976562 398.226562 C 584.195312 398.667969 584.40625 399.109375 584.621094 399.554688 Z M 582.394531 395.109375 C 582.085938 394.515625 581.769531 393.925781 581.453125 393.332031 C 581.769531 393.925781 582.085938 394.515625 582.394531 395.109375 Z M 578.933594 388.726562 C 578.507812 387.976562 578.082031 387.226562 577.648438 386.480469 C 578.082031 387.226562 578.511719 387.976562 578.933594 388.726562 Z M 576.175781 383.980469 C 575.359375 382.621094 574.527344 381.265625 573.675781 379.917969 C 574.53125 381.265625 575.359375 382.621094 576.175781 383.980469 Z M 572.414062 377.964844 C 571.746094 376.9375 571.070312 375.910156 570.382812 374.894531 C 571.070312 375.910156 571.746094 376.933594 572.414062 377.964844 Z M 569.203125 373.152344 C 568.195312 371.6875 567.164062 370.234375 566.113281 368.792969 C 567.164062 370.234375 568.195312 371.6875 569.203125 373.152344 Z M 565.058594 367.367188 C 564.101562 366.074219 563.132812 364.792969 562.144531 363.523438 C 563.132812 364.796875 564.105469 366.078125 565.058594 367.367188 Z M 561.453125 362.628906 C 560.257812 361.105469 559.03125 359.597656 557.789062 358.105469 C 559.03125 359.601562 560.257812 361.105469 561.453125 362.628906 Z M 512.640625 317.550781 C 512.6875 317.585938 512.738281 317.617188 512.785156 317.648438 C 512.734375 317.617188 512.6875 317.585938 512.640625 317.550781 Z M 518.082031 321.273438 C 518.203125 321.359375 518.320312 321.453125 518.445312 321.539062 C 518.324219 321.453125 518.203125 321.359375 518.082031 321.273438 Z M 523.410156 325.179688 C 523.636719 325.351562 523.851562 325.53125 524.078125 325.703125 C 523.851562 325.53125 523.636719 325.351562 523.410156 325.179688 Z M 528.628906 329.273438 C 528.996094 329.570312 529.355469 329.886719 529.71875 330.1875 C 529.355469 329.886719 528.996094 329.570312 528.628906 329.273438 Z M 533.734375 333.546875 C 534.246094 333.988281 534.742188 334.453125 535.246094 334.898438 C 534.742188 334.453125 534.242188 333.992188 533.734375 333.546875 Z M 538.71875 338.007812 C 539.378906 338.613281 540.019531 339.25 540.671875 339.867188 C 540.019531 339.25 539.378906 338.613281 538.71875 338.007812 Z M 465.753906 294.871094 Z M 462.519531 289.832031 C 462.589844 289.917969 462.660156 290.007812 462.730469 290.097656 C 462.660156 290.007812 462.589844 289.917969 462.519531 289.832031 Z M 488.335938 187.503906 C 489.042969 186.421875 489.714844 185.316406 490.34375 184.179688 C 489.714844 185.3125 489.046875 186.421875 488.335938 187.503906 Z M 486.125 190.625 C 486.195312 190.535156 486.253906 190.4375 486.324219 190.34375 C 486.257812 190.4375 486.195312 190.535156 486.125 190.625 Z M 338.375 158.765625 C 338.421875 158.585938 338.46875 158.40625 338.519531 158.226562 C 338.46875 158.40625 338.421875 158.585938 338.375 158.765625 Z M 337.945312 160.589844 C 337.980469 160.421875 338.019531 160.25 338.058594 160.082031 C 338.023438 160.25 337.980469 160.421875 337.945312 160.589844 Z M 339.078125 156.382812 C 339.03125 156.527344 338.984375 156.675781 338.941406 156.820312 C 338.988281 156.675781 339.03125 156.527344 339.078125 156.382812 Z M 180.5 479.3125 C 180.613281 479.429688 180.722656 479.546875 180.835938 479.65625 L 180.855469 479.480469 L 180.835938 479.65625 C 180.722656 479.546875 180.613281 479.429688 180.5 479.3125 Z M 204.25 442.328125 L 208.722656 442.726562 C 207.203125 442.695312 205.703125 442.589844 204.25 442.328125 Z M 180.3125 481.105469 C 179.808594 480.660156 179.34375 480.171875 178.90625 479.660156 C 179.347656 480.167969 179.808594 480.660156 180.3125 481.105469 Z M 181.375 486.660156 C 181.378906 486.734375 181.382812 486.804688 181.390625 486.875 C 181.375 486.886719 181.359375 486.898438 181.34375 486.90625 Z M 165.621094 472.601562 C 165.597656 472.542969 165.605469 472.449219 165.613281 472.359375 C 165.695312 472.546875 165.800781 472.71875 165.921875 472.875 C 165.773438 472.785156 165.65625 472.695312 165.621094 472.601562 Z M 170.121094 472.53125 C 170.679688 472.117188 171.21875 471.675781 171.726562 471.199219 C 171.578125 471.359375 171.449219 471.539062 171.285156 471.6875 C 170.949219 472 170.550781 472.289062 170.121094 472.53125 Z M 176.863281 476.578125 C 176.84375 476.546875 176.828125 476.515625 176.8125 476.484375 C 176.828125 476.515625 176.84375 476.546875 176.863281 476.578125 Z M 178.144531 478.644531 C 178.011719 478.464844 177.871094 478.292969 177.75 478.105469 C 177.871094 478.292969 178.011719 478.464844 178.144531 478.644531 Z M 178.144531 478.644531 " fill-opacity="1" fill-rule="nonzero"/></g><path fill="#de8d72" d="M 363.078125 233.839844 C 360.457031 235.863281 357.074219 236.871094 353.773438 236.605469 C 348.550781 236.191406 343.882812 232.628906 341.378906 228.03125 C 338.875 223.429688 338.359375 217.941406 339.128906 212.761719 C 339.632812 209.367188 340.808594 205.839844 343.507812 203.71875 C 346.203125 201.597656 350.742188 201.597656 352.640625 204.457031 Z M 464.964844 222.800781 C 469.566406 225.21875 475.601562 223.203125 478.929688 219.214844 C 482.261719 215.226562 483.3125 209.769531 483.230469 204.578125 C 483.191406 202.0625 482.890625 199.460938 481.613281 197.292969 C 480.335938 195.125 477.875 193.496094 475.382812 193.847656 C 473.460938 194.113281 471.882812 195.453125 470.425781 196.734375 Z M 383.945312 272.128906 C 386.929688 277.375 388.085938 285.285156 387.378906 291.5625 C 406.746094 284.175781 428.132812 284.96875 448.429688 285.25 C 447.097656 280.035156 447.332031 273.828125 448.785156 268.097656 C 433.9375 264.550781 418.125 266.296875 403.054688 268.742188 C 397.292969 269.679688 391.492188 270.320312 383.945312 272.128906 Z M 200.011719 440.957031 C 194.375 438.085938 187.011719 439.058594 182.316406 443.292969 C 180.121094 445.273438 178.460938 447.886719 175.914062 449.390625 C 174.402344 450.285156 172.609375 450.769531 171.386719 452.027344 C 170.589844 452.847656 170.117188 453.917969 169.683594 454.972656 C 167.84375 459.449219 166.429688 464.105469 165.464844 468.847656 C 165.117188 470.570312 165.113281 472.863281 166.75 473.507812 C 167.84375 473.941406 169.058594 473.316406 170.007812 472.625 C 172.503906 470.804688 174.527344 468.34375 175.828125 465.542969 C 175.425781 468.238281 175.3125 471.039062 176.101562 473.644531 C 176.886719 476.253906 178.6875 478.660156 181.222656 479.65625 C 181.296875 482.195312 181.148438 484.742188 181.429688 487.457031 C 187.5625 482.5 195.335938 479.605469 203.214844 479.34375 C 211.097656 479.082031 219.046875 481.449219 225.777344 486.457031 C 225.082031 482.660156 225.015625 478.75 225.574219 474.933594 C 225.921875 472.558594 226.511719 470.210938 226.5625 467.8125 C 226.601562 465.808594 226.265625 463.816406 225.882812 461.847656 C 224.855469 456.527344 223.492188 451.273438 221.816406 446.121094 C 221.398438 444.84375 220.738281 443.371094 219.242188 442.980469 C 212.855469 442.113281 205.753906 443.882812 200.011719 440.957031 Z M 200.011719 440.957031 " fill-opacity="1" fill-rule="nonzero"/><path fill="#3182ce" d="M 175.109375 494.511719 C 182.085938 485.085938 193.804688 479.359375 205.535156 479.640625 C 217.265625 479.925781 228.691406 486.210938 235.207031 495.960938 L 247.363281 466.960938 L 259.027344 437.925781 C 259.027344 437.925781 265.324219 417.492188 265.847656 417.082031 C 275.15625 391.644531 287.371094 366.945312 305.015625 346.386719 C 322.660156 325.832031 345.914062 310.664062 372.414062 304.839844 C 373.292969 300.367188 375.039062 296.0625 377.691406 292.1875 C 403.886719 284.96875 431.515625 282.976562 458.144531 286.425781 C 461.097656 288.886719 463.59375 291.898438 466.152344 296.039062 C 498.828125 307.160156 528.582031 326.738281 551.714844 352.34375 C 574.847656 377.949219 591.304688 409.523438 599.292969 443.363281 C 599.597656 444.574219 599.898438 445.789062 600.203125 447 L 320.738281 572.875 C 320.738281 572.875 306.273438 525.40625 305.625 525.867188 C 293.691406 543.492188 280.589844 560.328125 266.210938 576.273438 C 255.640625 587.53125 244.722656 598.464844 233.640625 609.089844 C 229.914062 611.867188 226.640625 615.199219 223.058594 618.15625 C 219.476562 621.117188 215.472656 623.753906 211.097656 624.578125 C 201.144531 626.941406 190.308594 623.855469 182.296875 617.496094 C 174.28125 611.136719 168.957031 601.792969 166.324219 591.910156 C 163.691406 582.027344 163.605469 571.609375 164.320312 561.015625 C 166.089844 540.617188 169.691406 520.429688 173.289062 500.273438 C 173.691406 498.015625 174.167969 495.777344 175.109375 494.511719 Z M 175.109375 494.511719 " fill-opacity="1" fill-rule="nonzero"/><path fill="#ffffff" d="M 502.273438 154.503906 L 618.636719 154.503906 L 618.636719 410.070312 L 589.382812 410.070312 C 580.726562 389.324219 568.429688 369.800781 552.914062 352.4375 C 528.816406 325.46875 498.6875 305.578125 465.753906 294.871094 C 464.035156 291.363281 461.550781 288.257812 458.476562 285.824219 C 458.378906 285.746094 458.265625 285.695312 458.140625 285.679688 C 455.28125 285.292969 452.402344 284.988281 449.511719 284.734375 C 448.640625 279.476562 448.375 274.125 448.714844 268.804688 C 449.609375 269.035156 450.503906 269.28125 451.390625 269.5625 C 451.757812 269.675781 452.132812 269.480469 452.253906 269.125 C 457.335938 254.382812 461.742188 239.253906 465.417969 224.039062 C 466.839844 224.351562 468.226562 224.527344 469.539062 224.527344 C 472.660156 224.527344 475.394531 223.65625 477.375 221.972656 C 478.441406 221.066406 479.359375 219.898438 480.355469 218.183594 C 483.886719 212.109375 484.8125 205.410156 482.894531 199.8125 C 482.503906 198.671875 481.871094 197.453125 481.035156 196.390625 C 484.710938 192.78125 487.847656 188.683594 490.347656 184.183594 C 492.917969 179.542969 494.796875 174.519531 496.613281 169.664062 Z M 478.605469 194.253906 C 479.132812 194.542969 479.609375 194.914062 480.054688 195.324219 C 479.730469 194.84375 479.316406 194.527344 478.855469 194.335938 C 478.773438 194.304688 478.6875 194.285156 478.605469 194.253906 Z M 269.417969 405.816406 C 279.617188 379.667969 292.742188 357.996094 308.429688 341.394531 C 326.5 322.273438 348.929688 309.246094 371.75 304.539062 C 371.707031 304.414062 371.691406 304.285156 371.71875 304.15625 C 372.695312 300.097656 374.1875 296.359375 376.410156 292.394531 C 376.5 292.234375 376.644531 292.117188 376.820312 292.066406 C 380.054688 291.113281 383.316406 290.246094 386.601562 289.460938 C 386.550781 284.054688 385.578125 278.753906 383.703125 273.683594 C 383.535156 273.746094 383.363281 273.796875 383.195312 273.863281 C 383.117188 273.890625 383.03125 273.90625 382.949219 273.90625 C 382.71875 273.90625 382.492188 273.789062 382.363281 273.582031 C 374.53125 261.148438 367.828125 248.058594 362.253906 234.417969 C 361.90625 234.648438 361.542969 234.863281 361.171875 235.058594 C 361.132812 235.238281 361.023438 235.402344 360.851562 235.507812 C 358.988281 236.605469 356.816406 237.152344 354.589844 237.152344 C 352.175781 237.152344 349.703125 236.507812 347.5 235.230469 C 343.765625 233.054688 340.835938 229.121094 339.46875 224.429688 C 338.320312 220.492188 338.191406 215.964844 339.078125 210.980469 C 339.539062 208.40625 340.378906 205.1875 342.832031 203.148438 C 343.324219 202.738281 343.878906 202.414062 344.46875 202.15625 C 344.453125 202.113281 344.441406 202.074219 344.425781 202.03125 C 344.398438 202.035156 344.367188 202.035156 344.339844 202.042969 C 344.09375 201.246094 343.871094 200.449219 343.636719 199.648438 C 341.351562 192.714844 339.550781 185.589844 338.335938 178.402344 C 337.523438 173.597656 336.804688 167.929688 337.632812 162.335938 C 338.003906 159.839844 338.699219 157.25 339.742188 154.507812 L 197.148438 154.507812 L 197.148438 410.070312 L 267.804688 410.070312 C 268.335938 408.648438 268.871094 407.226562 269.417969 405.816406 Z M 656.019531 661.425781 L 656.019531 572.207031 C 656.019531 479.417969 580.75 404.199219 487.898438 404.199219 C 395.046875 404.199219 319.773438 479.417969 319.773438 572.207031 L 319.773438 661.425781 Z M 656.019531 661.425781 " fill-opacity="1" fill-rule="nonzero"/><g clip-path="url(#id3)"><path fill="#000000" d="M 243.441406 474.730469 C 241.769531 478.648438 240.070312 482.554688 238.34375 486.445312 L 227.476562 486.445312 C 227.179688 486.210938 226.898438 485.953125 226.589844 485.722656 C 226.617188 485.570312 226.601562 485.40625 226.519531 485.261719 C 224.746094 482.148438 225.222656 478.546875 225.921875 474.730469 Z M 180.855469 479.484375 C 180.738281 479.429688 180.617188 479.375 180.5 479.316406 C 180.613281 479.429688 180.722656 479.546875 180.835938 479.660156 Z M 625.585938 474.730469 C 628.285156 478.523438 630.835938 482.429688 633.21875 486.445312 L 692.789062 486.445312 L 692.789062 474.730469 Z M 180.640625 481.257812 C 180.523438 481.234375 180.410156 481.191406 180.3125 481.105469 C 178.382812 479.386719 176.949219 477.160156 176.042969 474.730469 L 75.550781 474.730469 L 75.550781 486.445312 L 180.003906 486.445312 Z M 502.015625 155.199219 L 617.945312 155.199219 L 617.945312 409.375 L 589.101562 409.375 C 589.296875 409.835938 589.476562 410.300781 589.667969 410.761719 L 618.640625 410.761719 C 619.023438 410.761719 619.332031 410.453125 619.332031 410.070312 L 619.332031 154.503906 C 619.332031 154.121094 619.023438 153.8125 618.640625 153.8125 L 502.535156 153.8125 Z M 197.148438 410.761719 L 267.542969 410.761719 C 267.714844 410.296875 267.894531 409.839844 268.066406 409.375 L 197.84375 409.375 L 197.84375 155.199219 L 339.492188 155.199219 C 339.65625 154.742188 339.832031 154.28125 340.015625 153.8125 L 197.148438 153.8125 C 196.765625 153.8125 196.453125 154.121094 196.453125 154.503906 L 196.453125 410.070312 C 196.453125 410.453125 196.765625 410.761719 197.148438 410.761719 Z M 339.515625 181.78125 C 340.648438 188.636719 342.265625 195.40625 344.339844 202.035156 C 347.265625 201.523438 350.402344 202.347656 352.875 204.382812 C 358.882812 228.800781 369.078125 252.183594 382.839844 272.917969 C 393.90625 269.117188 405.667969 267.871094 417.324219 266.835938 C 428.589844 265.839844 440.257812 265.066406 451.636719 268.933594 C 456.605469 254.957031 460.835938 240.722656 464 226.5 C 466.261719 216.535156 468.519531 206.570312 470.589844 196.734375 C 471.378906 195.828125 472.203125 194.894531 473.304688 194.40625 C 474.277344 193.972656 475.375 193.925781 476.441406 193.949219 C 477.261719 193.96875 478.097656 194.023438 478.855469 194.335938 C 479.613281 194.648438 480.289062 195.253906 480.558594 196.519531 C 485.433594 191.003906 489.519531 184.792969 492.644531 178.128906 C 494.429688 174.335938 495.898438 170.402344 497.367188 166.476562 C 504.851562 146.449219 512.339844 126.421875 519.285156 106.355469 C 501.304688 117.050781 478.917969 120.074219 458.738281 114.527344 C 452.488281 112.8125 446.453125 110.3125 440.125 108.917969 C 430.316406 106.757812 420.128906 107.304688 410.121094 108.128906 C 402.21875 108.78125 394.277344 109.609375 386.714844 111.851562 C 374.242188 115.324219 363.324219 123.179688 354.511719 132.65625 C 346.902344 140.839844 340.539062 150.695312 338.78125 161.964844 C 337.019531 168.167969 338.347656 174.742188 339.515625 181.78125 Z M 360.851562 235.503906 C 361.179688 235.308594 361.289062 234.882812 361.09375 234.554688 C 360.898438 234.226562 360.476562 234.117188 360.144531 234.308594 C 356.691406 236.351562 352 236.238281 348.199219 234.027344 C 344.765625 232.03125 342.070312 228.390625 340.800781 224.039062 C 339.714844 220.308594 339.59375 215.996094 340.445312 211.222656 C 340.863281 208.878906 341.613281 205.960938 343.71875 204.210938 C 345.046875 203.105469 346.910156 202.671875 348.828125 203.023438 C 350.746094 203.371094 352.335938 204.4375 353.1875 205.941406 C 353.375 206.277344 353.800781 206.390625 354.132812 206.203125 C 354.464844 206.015625 354.582031 205.59375 354.394531 205.257812 C 353.339844 203.394531 351.402344 202.082031 349.078125 201.660156 C 346.75 201.234375 344.476562 201.777344 342.832031 203.144531 C 340.378906 205.183594 339.539062 208.402344 339.078125 210.976562 C 338.191406 215.960938 338.320312 220.488281 339.46875 224.425781 C 340.835938 229.113281 343.765625 233.050781 347.5 235.222656 C 349.703125 236.503906 352.175781 237.148438 354.589844 237.148438 C 356.816406 237.148438 358.988281 236.601562 360.851562 235.503906 Z M 383.199219 273.859375 C 389.953125 271.28125 397.257812 270.257812 404.324219 269.265625 C 419.273438 267.167969 436.21875 264.792969 451.390625 269.558594 C 451.757812 269.671875 452.132812 269.480469 452.253906 269.125 C 458.40625 251.269531 463.589844 232.859375 467.652344 214.402344 C 470.042969 203.558594 472.839844 189.261719 473.277344 174.8125 C 473.289062 174.429688 472.988281 174.113281 472.605469 174.097656 C 472.597656 174.097656 472.589844 174.097656 472.582031 174.097656 C 472.210938 174.097656 471.902344 174.394531 471.890625 174.773438 C 471.457031 189.105469 468.675781 203.320312 466.300781 214.105469 C 462.292969 232.289062 457.199219 250.433594 451.164062 268.039062 C 435.859375 263.445312 419.015625 265.804688 404.132812 267.894531 C 397.175781 268.871094 389.984375 269.878906 383.238281 272.363281 C 366.566406 245.757812 355.003906 216.1875 348.871094 184.46875 C 348.796875 184.09375 348.429688 183.84375 348.058594 183.921875 C 347.683594 183.992188 347.4375 184.355469 347.507812 184.730469 C 353.710938 216.8125 365.4375 246.707031 382.367188 273.582031 C 382.496094 273.789062 382.722656 273.90625 382.953125 273.90625 C 383.03125 273.90625 383.117188 273.890625 383.199219 273.859375 Z M 477.375 221.972656 C 478.441406 221.0625 479.359375 219.894531 480.355469 218.183594 C 483.886719 212.105469 484.8125 205.410156 482.894531 199.808594 C 481.933594 197 479.570312 193.675781 476.082031 193.535156 C 473.820312 193.433594 471.890625 194.699219 470.429688 195.800781 C 470.121094 196.03125 470.0625 196.464844 470.292969 196.769531 C 470.519531 197.078125 470.960938 197.136719 471.265625 196.90625 C 472.539062 195.945312 474.214844 194.847656 476.027344 194.921875 C 478.816406 195.03125 480.761719 197.867188 481.582031 200.261719 C 483.367188 205.476562 482.484375 211.757812 479.15625 217.484375 C 478.242188 219.058594 477.414062 220.113281 476.472656 220.914062 C 473.921875 223.085938 469.863281 223.703125 465.332031 222.613281 C 464.953125 222.527344 464.585938 222.753906 464.492188 223.125 C 464.40625 223.5 464.632812 223.875 465.003906 223.964844 C 466.574219 224.339844 468.097656 224.527344 469.539062 224.527344 C 472.660156 224.523438 475.394531 223.652344 477.375 221.972656 Z M 345.574219 203.25 C 345.9375 203.121094 346.125 202.726562 345.996094 202.363281 C 343.207031 194.515625 341.089844 186.375 339.703125 178.167969 C 338.910156 173.46875 338.207031 167.9375 339.003906 162.539062 C 339.585938 158.625 341.007812 154.445312 343.347656 149.769531 C 351.96875 132.546875 367.964844 118.867188 386.136719 113.175781 C 396.753906 109.847656 408.164062 109.058594 418.9375 108.539062 C 424.683594 108.261719 429.863281 108.082031 435.113281 108.75 C 441.242188 109.527344 447.265625 111.488281 453.089844 113.378906 C 458.417969 115.109375 463.929688 116.902344 469.5625 117.8125 C 484.195312 120.179688 500.558594 116.828125 518.222656 107.855469 L 495.308594 169.175781 C 493.511719 173.984375 491.652344 178.960938 489.128906 183.507812 C 486.609375 188.050781 483.433594 192.179688 479.6875 195.785156 C 479.410156 196.050781 479.402344 196.488281 479.667969 196.765625 C 479.933594 197.042969 480.375 197.050781 480.648438 196.785156 C 484.496094 193.085938 487.757812 188.84375 490.34375 184.183594 C 492.914062 179.542969 494.792969 174.519531 496.609375 169.660156 L 520.152344 106.660156 C 520.253906 106.390625 520.179688 106.085938 519.960938 105.898438 C 519.746094 105.707031 519.433594 105.671875 519.179688 105.804688 C 501.171875 115.253906 484.550781 118.835938 469.785156 116.445312 C 464.253906 115.550781 458.796875 113.777344 453.515625 112.0625 C 447.632812 110.148438 441.546875 108.167969 435.289062 107.375 C 429.9375 106.699219 424.46875 106.886719 418.867188 107.15625 C 408.003906 107.679688 396.496094 108.476562 385.71875 111.855469 C 367.195312 117.65625 350.894531 131.601562 342.105469 149.148438 C 339.695312 153.960938 338.230469 158.277344 337.628906 162.335938 C 336.800781 167.925781 337.519531 173.59375 338.332031 178.402344 C 339.730469 186.691406 341.871094 194.90625 344.6875 202.832031 C 344.789062 203.113281 345.058594 203.292969 345.339844 203.292969 C 345.421875 203.289062 345.5 203.277344 345.574219 203.25 Z M 388 289.902344 C 388.003906 283.988281 386.929688 278.195312 384.816406 272.675781 C 384.679688 272.316406 384.277344 272.136719 383.921875 272.273438 C 383.5625 272.414062 383.382812 272.8125 383.523438 273.171875 C 385.574219 278.53125 386.613281 284.160156 386.613281 289.902344 C 386.613281 290.285156 386.921875 290.59375 387.304688 290.59375 C 387.6875 290.59375 388 290.285156 388 289.902344 Z M 449.03125 286.117188 C 449.40625 286.050781 449.664062 285.6875 449.59375 285.3125 C 448.609375 279.65625 448.320312 273.882812 448.742188 268.148438 C 448.769531 267.769531 448.480469 267.433594 448.097656 267.40625 C 447.746094 267.378906 447.382812 267.667969 447.355469 268.046875 C 446.929688 273.894531 447.222656 279.78125 448.230469 285.550781 C 448.289062 285.886719 448.582031 286.125 448.910156 286.125 C 448.953125 286.125 448.992188 286.121094 449.03125 286.117188 Z M 372.511719 305 C 405.257812 299.484375 435.808594 297.085938 465.929688 297.6875 C 466.144531 297.683594 466.378906 297.582031 466.511719 297.390625 C 466.644531 297.199219 466.671875 296.957031 466.585938 296.742188 C 464.890625 292.460938 462.085938 288.683594 458.476562 285.824219 C 458.378906 285.746094 458.261719 285.695312 458.140625 285.679688 C 431.367188 282.066406 403.253906 284.277344 376.820312 292.066406 C 376.648438 292.117188 376.5 292.234375 376.414062 292.390625 C 374.1875 296.359375 372.699219 300.097656 371.722656 304.15625 C 371.667969 304.378906 371.730469 304.617188 371.890625 304.789062 C 372.023438 304.929688 372.207031 305.011719 372.398438 305.011719 C 372.433594 305.011719 372.472656 305.007812 372.511719 305 Z M 457.761719 287.027344 C 460.835938 289.503906 463.285156 292.683594 464.890625 296.28125 C 435.339844 295.765625 405.382812 298.113281 373.332031 303.457031 C 374.253906 299.996094 375.585938 296.742188 377.488281 293.316406 C 403.585938 285.664062 431.335938 283.488281 457.761719 287.027344 Z M 210.910156 548.015625 C 228.117188 512.515625 245.90625 475.804688 259.414062 437.996094 C 260.695312 434.414062 261.9375 430.816406 263.183594 427.21875 C 265.5625 420.332031 268.023438 413.214844 270.710938 406.320312 C 280.84375 380.339844 293.875 358.816406 309.4375 342.347656 C 327.707031 323.015625 350.464844 309.957031 373.515625 305.578125 C 373.894531 305.503906 374.140625 305.144531 374.070312 304.765625 C 374 304.390625 373.632812 304.144531 373.257812 304.214844 C 349.921875 308.648438 326.898438 321.855469 308.429688 341.394531 C 292.742188 357.996094 279.617188 379.667969 269.417969 405.816406 C 266.722656 412.738281 264.253906 419.871094 261.871094 426.765625 C 260.628906 430.359375 259.386719 433.953125 258.109375 437.53125 C 244.625 475.269531 226.851562 511.945312 209.660156 547.414062 C 209.496094 547.757812 209.640625 548.171875 209.984375 548.339844 C 210.082031 548.386719 210.183594 548.40625 210.285156 548.40625 C 210.542969 548.40625 210.789062 548.261719 210.910156 548.015625 Z M 301.027344 468.285156 C 306.703125 446.527344 304.820312 423.699219 302.613281 404.007812 C 301.65625 395.476562 300.40625 387.277344 295.675781 380.773438 C 295.449219 380.460938 295.015625 380.394531 294.703125 380.617188 C 294.394531 380.84375 294.324219 381.277344 294.550781 381.585938 C 299.085938 387.816406 300.296875 395.820312 301.234375 404.160156 C 303.429688 423.726562 305.300781 446.40625 299.683594 467.933594 C 299.585938 468.304688 299.808594 468.683594 300.179688 468.78125 C 300.238281 468.796875 300.296875 468.804688 300.355469 468.804688 C 300.664062 468.804688 300.945312 468.59375 301.027344 468.285156 Z M 599.902344 446.871094 C 600.277344 446.796875 600.519531 446.429688 600.445312 446.054688 C 593.585938 411.933594 577.152344 379.5625 552.914062 352.4375 C 528.683594 325.3125 498.351562 305.34375 465.195312 294.683594 C 464.832031 294.566406 464.441406 294.765625 464.324219 295.128906 C 464.207031 295.496094 464.40625 295.886719 464.769531 296.003906 C 532.375 317.742188 585.09375 376.746094 599.085938 446.328125 C 599.152344 446.65625 599.441406 446.882812 599.765625 446.882812 C 599.808594 446.886719 599.855469 446.882812 599.902344 446.871094 Z M 548.015625 415.875 C 548.390625 415.785156 548.621094 415.414062 548.53125 415.039062 C 544.101562 396.277344 543.886719 378.75 547.859375 359.886719 C 547.9375 359.507812 547.699219 359.140625 547.320312 359.0625 C 546.957031 358.984375 546.578125 359.222656 546.5 359.597656 C 542.484375 378.671875 542.703125 396.390625 547.183594 415.359375 C 547.257812 415.675781 547.542969 415.894531 547.855469 415.894531 C 547.910156 415.890625 547.964844 415.886719 548.015625 415.875 Z M 656.714844 661.425781 L 656.714844 572.207031 C 656.714844 479.1875 580.980469 403.503906 487.898438 403.503906 C 394.8125 403.503906 319.078125 479.1875 319.078125 572.207031 L 319.078125 661.425781 C 319.078125 661.808594 319.390625 662.121094 319.773438 662.121094 L 656.019531 662.121094 C 656.402344 662.121094 656.714844 661.808594 656.714844 661.425781 Z M 320.46875 572.207031 C 320.46875 479.949219 395.574219 404.890625 487.898438 404.890625 C 580.21875 404.890625 655.324219 479.949219 655.324219 572.207031 L 655.324219 660.734375 L 320.46875 660.734375 Z M 319.984375 570.808594 C 320.347656 570.691406 320.550781 570.300781 320.433594 569.9375 C 311.519531 542.1875 303.679688 513.71875 297.132812 485.328125 C 297.046875 484.953125 296.671875 484.71875 296.300781 484.804688 C 295.925781 484.890625 295.691406 485.265625 295.78125 485.636719 C 302.335938 514.070312 310.1875 542.574219 319.109375 570.359375 C 319.203125 570.65625 319.476562 570.84375 319.769531 570.84375 C 319.839844 570.839844 319.914062 570.832031 319.984375 570.808594 Z M 214.566406 624.011719 C 219.671875 621.898438 223.964844 618.347656 228.28125 614.589844 C 258.320312 588.414062 284.792969 558.359375 306.960938 525.257812 C 307.175781 524.941406 307.089844 524.511719 306.773438 524.296875 C 306.453125 524.085938 306.023438 524.171875 305.808594 524.488281 C 283.710938 557.488281 257.320312 587.449219 227.367188 613.546875 C 223.144531 617.226562 218.945312 620.699219 214.035156 622.734375 C 200.324219 628.410156 184.914062 621.191406 176.777344 611.121094 C 169.0625 601.578125 164.992188 587.84375 164.996094 571.40625 C 165 562.542969 166.0625 553.640625 167.085938 545.03125 C 167.695312 539.914062 168.328125 534.625 168.707031 529.523438 C 169.457031 522.40625 176.164062 517.347656 181.144531 514.164062 C 194.671875 505.511719 207.140625 501.855469 218.226562 503.296875 C 222.941406 503.914062 226.402344 505.484375 228.507812 507.964844 C 228.753906 508.257812 229.191406 508.292969 229.484375 508.046875 C 229.777344 507.800781 229.816406 507.363281 229.566406 507.070312 C 227.230469 504.316406 223.476562 502.585938 218.40625 501.921875 C 206.992188 500.441406 194.207031 504.164062 180.398438 512.996094 C 175.175781 516.332031 168.140625 521.667969 167.328125 529.398438 C 166.949219 534.488281 166.320312 539.765625 165.710938 544.867188 C 164.679688 553.515625 163.613281 562.460938 163.609375 571.40625 C 163.605469 588.164062 167.78125 602.199219 175.699219 611.992188 C 182.089844 619.902344 192.828125 626.113281 203.882812 626.113281 C 207.453125 626.113281 211.0625 625.464844 214.566406 624.011719 Z M 169.914062 525.324219 L 173.625 501.179688 C 173.9375 499.144531 174.261719 497.042969 175.140625 495.1875 C 176.414062 492.511719 178.796875 490.503906 180.730469 489.054688 C 189.316406 482.621094 199.789062 479.523438 209.46875 480.535156 C 220.015625 481.640625 229.476562 487.714844 234.164062 496.378906 C 234.34375 496.71875 234.765625 496.84375 235.101562 496.660156 C 235.441406 496.476562 235.566406 496.058594 235.382812 495.722656 C 230.484375 486.65625 220.609375 480.308594 209.613281 479.15625 C 199.597656 478.09375 188.761719 481.304688 179.902344 487.941406 C 177.835938 489.488281 175.289062 491.640625 173.890625 494.59375 C 172.921875 496.632812 172.582031 498.835938 172.253906 500.96875 L 168.539062 525.113281 C 168.484375 525.492188 168.742188 525.84375 169.121094 525.902344 C 169.15625 525.910156 169.191406 525.910156 169.226562 525.910156 C 169.5625 525.910156 169.859375 525.664062 169.914062 525.324219 Z M 181.167969 488.332031 L 182.605469 476.617188 C 182.652344 476.238281 182.382812 475.890625 182.003906 475.84375 C 181.613281 475.789062 181.277344 476.066406 181.230469 476.449219 L 179.792969 488.164062 C 179.746094 488.542969 180.015625 488.890625 180.394531 488.9375 C 180.425781 488.941406 180.453125 488.941406 180.480469 488.941406 C 180.828125 488.941406 181.125 488.683594 181.167969 488.332031 Z M 181.292969 481.050781 C 181.546875 480.765625 181.523438 480.328125 181.238281 480.070312 C 177.285156 476.546875 175.453125 470.722656 176.675781 465.578125 C 176.765625 465.203125 176.535156 464.832031 176.164062 464.742188 C 175.792969 464.648438 175.414062 464.882812 175.328125 465.257812 C 173.988281 470.886719 175.992188 477.253906 180.3125 481.105469 C 180.445312 481.222656 180.609375 481.28125 180.773438 481.28125 C 180.964844 481.28125 181.15625 481.203125 181.292969 481.050781 Z M 226.257812 486.207031 C 226.59375 486.015625 226.707031 485.59375 226.519531 485.261719 C 224.582031 481.859375 225.324219 477.882812 226.113281 473.671875 C 226.492188 471.65625 226.882812 469.570312 226.960938 467.535156 C 227.105469 463.75 226.144531 460.089844 225.214844 456.546875 L 222.179688 444.972656 C 222.019531 444.363281 221.800781 443.527344 221.140625 442.960938 C 220.464844 442.378906 219.578125 442.296875 218.929688 442.242188 L 200.460938 440.597656 C 195.257812 438.273438 187.425781 437.183594 182.320312 441.683594 C 181.222656 442.652344 180.328125 443.816406 179.460938 444.945312 C 178.261719 446.511719 177.125 447.984375 175.539062 448.902344 C 175.089844 449.160156 174.613281 449.371094 174.132812 449.578125 C 173.367188 449.917969 172.570312 450.269531 171.863281 450.816406 C 170.203125 452.097656 169.457031 454.058594 168.777344 456.125 C 167.113281 461.183594 165.625 466.367188 164.34375 471.53125 C 164.242188 471.925781 164.09375 472.527344 164.328125 473.113281 C 164.53125 473.617188 164.964844 474.011719 165.628906 474.285156 C 167.683594 475.136719 170.277344 474.519531 172.226562 472.703125 C 173.902344 471.144531 174.90625 469.023438 175.792969 467.148438 C 175.957031 466.804688 175.808594 466.390625 175.460938 466.226562 C 175.113281 466.0625 174.703125 466.210938 174.539062 466.554688 C 173.664062 468.402344 172.761719 470.3125 171.28125 471.6875 C 170.003906 472.871094 167.921875 473.734375 166.15625 473.003906 C 165.863281 472.882812 165.671875 472.738281 165.617188 472.601562 C 165.546875 472.425781 165.628906 472.101562 165.6875 471.863281 C 166.960938 466.734375 168.441406 461.582031 170.09375 456.558594 C 170.703125 454.703125 171.363281 452.953125 172.710938 451.910156 C 173.285156 451.46875 173.96875 451.167969 174.691406 450.847656 C 175.214844 450.617188 175.738281 450.386719 176.230469 450.101562 C 178.054688 449.050781 179.328125 447.390625 180.558594 445.789062 C 181.386719 444.714844 182.238281 443.601562 183.234375 442.722656 C 187.882812 438.625 195.167969 439.726562 199.996094 441.910156 C 200.066406 441.941406 200.144531 441.960938 200.222656 441.96875 L 218.804688 443.621094 C 219.402344 443.675781 219.921875 443.738281 220.234375 444.007812 C 220.539062 444.269531 220.6875 444.757812 220.835938 445.324219 L 223.871094 456.894531 C 224.773438 460.335938 225.707031 463.898438 225.570312 467.480469 C 225.5 469.414062 225.117188 471.445312 224.75 473.410156 C 223.949219 477.683594 223.121094 482.101562 225.308594 485.945312 C 225.4375 486.167969 225.671875 486.292969 225.914062 486.292969 C 226.03125 486.296875 226.152344 486.269531 226.257812 486.207031 Z M 226.257812 486.207031 " fill-opacity="1" fill-rule="nonzero"/></g></svg>